<svg xmlns="http://www.w3.org/2000/svg" width="2671.273" height="2396.593" viewBox="0 0 2671.273 2396.593">
  <g id="Group_17" data-name="Group 17" transform="translate(-3960.488 -4414.677) rotate(-9)">
    <g id="Group_13" data-name="Group 13" transform="translate(3162.879 5347.606)">
      <g id="Group_20" data-name="Group 20">
        <g id="Path_119" data-name="Path 119" transform="translate(65.044 61.012)" fill="none">
          <path d="M489.009,0C759.082,0,978.019,218.937,978.019,489.009c0,109.379,20.78,248.824,996.385,1228.335C795.535,923.07,649.7,978.019,489.009,978.019,218.937,978.019,0,759.082,0,489.009S218.937,0,489.009,0Z" stroke="none"/>
          <path d="M 489.009521484375 29.9998779296875 C 235.910888671875 29.9998779296875 30 235.91064453125 30 489.00927734375 C 30 742.10791015625 235.910888671875 948.0187377929688 489.009521484375 948.0187377929688 C 498.399169921875 948.0187377929688 507.7325439453125 947.8251342773438 517.2322998046875 947.630126953125 C 527.49169921875 947.4195556640625 537.93701171875 947.2070922851563 548.8270263671875 947.2070922851563 C 704.6234130859375 947.2070922851563 928.60205078125 995.4234619140625 1749.14306640625 1531.716674804688 C 947.9791259765625 710.8054809570313 948.0186767578125 593.4664306640625 948.0186767578125 489.00927734375 C 948.0186767578125 235.91064453125 742.1080322265625 29.9998779296875 489.009521484375 29.9998779296875 M 489.009521484375 -0.0001220703125 C 759.0816650390625 -0.0001220703125 978.0186157226563 218.9371337890625 978.0186157226563 489.00927734375 C 978.0186157226563 598.3887939453125 998.79833984375 737.833740234375 1974.403930664063 1717.344604492188 C 938.8642578125 1019.63916015625 700.415283203125 977.2069702148438 548.8270263671875 977.2069702148438 C 527.845703125 977.2069702148438 508.546875 978.0187377929688 489.009521484375 978.0187377929688 C 218.93701171875 978.0187377929688 0 759.081787109375 0 489.00927734375 C 0 218.9371337890625 218.93701171875 -0.0001220703125 489.009521484375 -0.0001220703125 Z" stroke="none" fill="#ffa200"/>
        </g>
        <g id="Path_121" data-name="Path 121" transform="translate(24.727 28.333)" fill="none">
          <path d="M547.822,0c302.553,0,547.822,243.193,547.822,543.187,0,121.5,23.279,276.392,1116.219,1364.423C891.213,1025.337,727.841,1086.374,547.822,1086.374,245.268,1086.374,0,843.181,0,543.187S245.268,0,547.822,0Z" stroke="none"/>
          <path d="M 547.821533203125 69.9998779296875 C 284.3497314453125 69.9998779296875 70 282.2706298828125 70 543.18701171875 C 70 804.10302734375 284.3497314453125 1016.373779296875 547.821533203125 1016.373779296875 C 558.09619140625 1016.373779296875 568.3089599609375 1016.160949707031 578.7039794921875 1015.949523925781 C 590.435791015625 1015.710571289063 602.38037109375 1015.471984863281 614.833251953125 1015.471984863281 C 776.3118896484375 1015.471984863281 999.911376953125 1059.078857421875 1716.739135742188 1503.951416015625 C 1025.686401367188 781.762451171875 1025.642944335938 660.7567138671875 1025.642944335938 543.18701171875 C 1025.642944335938 282.2706298828125 811.2933349609375 69.9998779296875 547.821533203125 69.9998779296875 M 547.821533203125 -0.0001220703125 C 850.3751220703125 -0.0001220703125 1095.642944335938 243.193115234375 1095.642944335938 543.18701171875 C 1095.642944335938 664.6842041015625 1118.921875 819.5784912109375 2211.861572265625 1907.60986328125 C 1051.77978515625 1132.605224609375 784.653076171875 1085.472045898438 614.8333740234375 1085.472045898438 C 591.32861328125 1085.472045898438 569.7086181640625 1086.373779296875 547.821533203125 1086.373779296875 C 245.2679443359375 1086.373779296875 0 843.1805419921875 0 543.18701171875 C 0 243.193115234375 245.2679443359375 -0.0001220703125 547.821533203125 -0.0001220703125 Z" stroke="none" fill="rgba(255,0,0,0.31)"/>
        </g>
        <g id="Path_122" data-name="Path 122" fill="none">
          <path d="M589.455,0C771.11,0,921.644,75.64,1019.25,198.532,1096.524,295.827,1140.6,422.78,1140.6,565.241c0,130.536,63.36,315.306,1239.361,1484.277C958.943,1101.612,789.352,1139.2,595.652,1139.2,270.1,1139.2,0,905.905,0,583.595S263.908,0,589.455,0Z" stroke="none"/>
          <path d="M 589.4547119140625 60.0001220703125 C 297.5126953125 60.0001220703125 60 294.8836669921875 60 583.5947265625 C 60 861.5032958984375 295.2861328125 1079.19873046875 595.6514892578125 1079.19873046875 L 616.4468994140625 1079.099365234375 L 638.465087890625 1078.995849609375 C 824.517333984375 1078.995849609375 1060.039916992188 1130.412963867188 1937.906616210938 1689.121826171875 C 1148.963745117188 880.0621337890625 1080.597534179688 706.6697998046875 1080.597534179688 565.2412109375 C 1080.597534179688 438.9825439453125 1043.13720703125 325.0804443359375 972.2657470703125 235.8486328125 C 882.201171875 122.4508056640625 746.249755859375 60.0001220703125 589.4547119140625 60.0001220703125 M 589.4547119140625 0 C 771.110107421875 0 921.64404296875 75.6397705078125 1019.249755859375 198.5322265625 C 1096.5244140625 295.8265380859375 1140.597534179688 422.77978515625 1140.597534179688 565.2412109375 C 1140.597534179688 695.77685546875 1203.957885742188 880.5472412109375 2379.958740234375 2049.51806640625 C 1063.3681640625 1171.27001953125 821.030029296875 1138.995727539063 638.4649658203125 1138.995727539063 C 623.98486328125 1138.995727539063 609.8858642578125 1139.19873046875 595.6514892578125 1139.19873046875 C 270.104736328125 1139.19873046875 0 905.9051513671875 0 583.5947265625 C 0 261.284423828125 263.907958984375 0 589.4547119140625 0 Z" stroke="none" fill="rgba(255,159,63,0.31)"/>
        </g>
      </g>
      <path id="Path_120" data-name="Path 120" d="M389.476,0C408.886,51.934,516.95,96.728,588.692,54.735c113.842,67.8,190.261,192.344,190.261,334.741C740.421,402.46,714.436,452.587,764.4,495.3,718.489,658.826,568.011,778.953,389.476,778.953c-162.187,0-301.22-99.135-359.931-240.409C78.554,452.8,24.849,404.407,0,389.476,0,174.375,174.375,0,389.476,0Z" transform="translate(162.413 157.299)" fill="#d9d9d9"/>
    </g>
    <g id="Group_16" data-name="Group 16" transform="translate(3448.626 5632.566)">
      <circle id="Ellipse_603" data-name="Ellipse 603" cx="47.603" cy="47.603" r="47.603" transform="translate(0 82.223)" fill="#9c9c9c"/>
      <circle id="Ellipse_604" data-name="Ellipse 604" cx="68.699" cy="68.699" r="68.699" transform="translate(352.693 252.078)" fill="#797979"/>
      <circle id="Ellipse_605" data-name="Ellipse 605" cx="20.556" cy="20.556" r="20.556" transform="translate(178.51 516.056)" fill="#888"/>
      <circle id="Ellipse_606" data-name="Ellipse 606" cx="34.62" cy="34.62" r="34.62" transform="translate(379.74)" fill="#9c9c9c"/>
    </g>
  </g>
</svg>
