<svg xmlns="http://www.w3.org/2000/svg" width="3839.937" height="3839.938" viewBox="0 0 3839.937 3839.938">
  <g id="earth" transform="translate(221 189.719)">
    <circle id="Ellipse_14" data-name="Ellipse 14" cx="1919.968" cy="1919.968" r="1919.968" transform="translate(-221 -189.718)" fill="#70c1ff"/>
    <g id="moon_crator" data-name="moon crator" transform="translate(-212.364 -91.357)">
      <path id="Path_123" data-name="Path 123" d="M985.987,4.246C1259.433-124.829,2011.112,338.469,1758.965,382.4c-826.791,178.765,180.309,190.665,180.309,575.131,0,238.5,132.3,1133.6-503.6,825.527-583.487-330.352-791.217,595.74-1079.2,595.74-526.486,0-623.4-786.014-348.129-1399.278C240.377,484.347,554,208.155,985.987,4.246Z" transform="translate(141.575 66.915)" fill="#26821f"/>
      <path id="Path_124" data-name="Path 124" d="M287.669-59.71c230.984,0,782.882,373.1,782.882,604.085S547.2,921.457,316.215,921.457,275.816,363.13,18.7,432.025,56.685-59.71,287.669-59.71Z" transform="translate(2169.927 59.71)" fill="#26821f"/>
    </g>
  </g>
</svg>
