<svg xmlns="http://www.w3.org/2000/svg" width="167.016" height="75.638" viewBox="0 0 167.016 75.638">
  <defs>
    <style>
      .cls-1 {
        isolation: isolate;
      }

      .cls-2 {
        fill: rgba(255,255,255,0);
      }

      .cls-2, .cls-3, .cls-4, .cls-5, .cls-6, .cls-7 {
        fill-rule: evenodd;
      }

      .cls-3 {
        fill: #db812e;
      }

      .cls-5 {
        fill: #1b3d76;
      }

      .cls-6 {
        fill: #fff;
      }

      .cls-7 {
        fill: #4a2c1d;
      }
    </style>
  </defs>
  <g id="Group_1" data-name="Group 1" transform="translate(-1545.504 -1215.906)">
    <g id="NUS" class="cls-1" transform="translate(1537 1159.327)">
      <path id="Path_1" data-name="Path 1" class="cls-2" d="M0,0H166.725V75.506H0Z" transform="translate(8.504 56.579)"/>
      <path id="Path_2" data-name="Path 2" class="cls-3" d="M67.273,93.106c0,.377.377,10.069-7.55,22.4a41.379,41.379,0,0,1-21.646,16.737H37.7a41.776,41.776,0,0,1-21.519-16.737C8.882,104.18,8.5,95.119,8.5,93.483V57.114H67.273Z" transform="translate(0 -0.027)"/>
      <path id="Path_3" data-name="Path 3" class="cls-4" d="M79.224,103.181h1.51l3.524,6.292v-6.292h1.132v7.8H83.88l-3.524-6.418v6.418H79.224Zm11.451,5.663a1.562,1.562,0,0,1-1.636,1.511,1.1,1.1,0,0,1-1.133-1.006c0-1.008,1.51-1.008,2.014-1.008h.755Zm-3.146-2.264a2.763,2.763,0,0,1,1.636-.5c1.133,0,1.51.5,1.51,1.383H89.543c-1.133,0-2.643.5-2.643,1.889,0,1.258.755,1.762,2.014,1.762a1.977,1.977,0,0,0,1.762-.882v.755h1.007v-3.4c0-1.635-.629-2.391-2.265-2.391a4.193,4.193,0,0,0-1.888.5v.882Zm8.935-.378h-1.51v3.147a.9.9,0,0,0,.881,1.006,1.062,1.062,0,0,0,.755-.253v.882a2.14,2.14,0,0,1-.882.126c-1.133,0-1.762-.5-1.762-1.637V106.2H92.688v-.88h1.259v-1.385l1.007-.253v1.637h1.51Zm1.511,4.783h1.006v-5.663H97.975Zm-.126-6.921h1.258v-1.258H97.849Zm3.775,4.152a1.848,1.848,0,1,1,3.649,0,1.848,1.848,0,1,1-3.649,0Zm-1.133,0a2.879,2.879,0,0,0,3.02,2.9,2.849,2.849,0,0,0,2.9-2.9,2.958,2.958,0,1,0-5.915,0Z" transform="translate(-3.518 -2.3)"/>
      <path id="Path_4" data-name="Path 4" class="cls-5" d="M65.969,81.343v-22.9H10.094V81.468l55.875-.125Z" transform="translate(-0.079 -0.093)"/>
      <path id="Path_5" data-name="Path 5" class="cls-4" d="M107.763,103.021h1.008v.88a2.216,2.216,0,0,1,1.887-1.006c1.511,0,2.14.882,2.14,2.391v3.4H111.79v-2.9c0-1.383-.376-2.012-1.258-2.012-1.258,0-1.762.88-1.762,2.264v2.643h-1.008v-5.663h0Zm10.2,3.523a1.452,1.452,0,0,1-1.511,1.511,1.1,1.1,0,0,1-1.132-1.006c0-1.008,1.385-1.008,2.014-1.008h.629v.5Zm-3.022-2.264a2.322,2.322,0,0,1,1.637-.5,1.206,1.206,0,0,1,1.385,1.383h-1.134c-1.006,0-2.641.5-2.641,1.889,0,1.258.88,1.762,2.138,1.762a1.973,1.973,0,0,0,1.762-.882v.755h1.008v-3.4a2.081,2.081,0,0,0-2.391-2.391,5.307,5.307,0,0,0-1.887.5l.123.882Zm6.041-3.9h1.006v8.305h-1.006Zm11.956,5.16c0,2.14-1.134,3.272-3.022,3.272-2.014,0-3.02-1.132-3.02-3.272v-4.656h1.132v4.4c0,1.511.378,2.643,1.887,2.643,1.385,0,1.887-1.132,1.887-2.643v-4.4h1.134v4.656h0Zm1.888-2.517h1.006v.88a2.218,2.218,0,0,1,1.887-1.006c1.511,0,2.14.882,2.14,2.391v3.4h-1.008v-2.9c0-1.383-.376-2.012-1.258-2.012-1.132,0-1.762.88-1.762,2.264v2.643H134.82v-5.663h0Zm6.921,0h1.132v5.663h-1.132Zm0-2.516h1.132v1.258h-1.132Zm5.536,8.179H146.02l-2.014-5.663h1.134l1.509,4.657h.126l1.511-4.657h1.132l-2.14,5.663Zm3.9-3.4a1.451,1.451,0,0,1,1.511-1.509,1.356,1.356,0,0,1,1.385,1.509Zm3.524,2.14a2.8,2.8,0,0,1-1.637.629,1.936,1.936,0,0,1-1.887-1.887h4.027c0-1.887-.629-3.272-2.516-3.272a2.584,2.584,0,0,0-2.643,2.894c0,1.889.882,3.022,2.9,3.022a2.784,2.784,0,0,0,1.762-.378v-1.007Zm1.887-4.4H157.6v.88a1.637,1.637,0,0,1,1.511-1.006h.755V103.9a1.382,1.382,0,0,0-.629-.124c-1.006,0-1.511.88-1.511,2.391v2.516h-1.132v-5.663h0Zm3.9,4.531a2.352,2.352,0,0,0,1.385.5.892.892,0,0,0,1.006-.882c0-1.006-2.391-.88-2.391-2.516,0-1.258.882-1.762,2.014-1.762a3.705,3.705,0,0,1,1.258.253l-.126.88a2.366,2.366,0,0,0-1.006-.251c-.629,0-1.008.124-1.008.629,0,1.132,2.393.88,2.393,2.643,0,1.258-.882,1.762-2.014,1.762a3.183,3.183,0,0,1-1.511-.253v-1.005h0Zm4.909-4.531h1.132v5.663H165.4Zm0-2.516h1.132v1.258H165.4Zm6.04,3.4h-1.509v3.147a.9.9,0,0,0,.88,1.006,1.062,1.062,0,0,0,.755-.253v.882a1.862,1.862,0,0,1-.882.126c-1.132,0-1.762-.5-1.762-1.637V103.9h-1.258v-.88h1.258v-1.385l1.008-.253v1.637h1.509Zm.882,6.418h.5c1.008,0,1.258-1.258,1.258-1.383a5.488,5.488,0,0,1-.126-.629l-2.014-5.285h1.134l1.635,4.781,1.511-4.781h1.132l-2.14,5.789c-.376,1.132-.754,2.391-2.138,2.391-.378,0-.629,0-.755-.126v-.756Zm-92.5,8.81a1.9,1.9,0,0,1,1.762-2.14,2.157,2.157,0,0,1,0,4.28A1.975,1.975,0,0,1,79.826,119.129Zm-1.132,0a2.955,2.955,0,0,0,2.894,3.02,2.877,2.877,0,0,0,2.894-3.02,2.808,2.808,0,0,0-2.894-3.02A2.88,2.88,0,0,0,78.694,119.129Zm7.928-2.014H85.237v-.882h1.385v-.5c0-1.385.377-2.264,1.887-2.264h.754v.88c-.125,0-.377-.126-.5-.126-1.007,0-1.007.631-1.007,1.385v.629h1.51v.882h-1.51V121.9H86.621v-4.783Zm10.193-1.761a3.333,3.333,0,0,0-1.509-.378c-.629,0-1.385.253-1.385,1.008,0,1.509,3.4,1.258,3.4,3.775,0,1.635-1.26,2.391-2.9,2.391a7.714,7.714,0,0,1-1.635-.376l.125-1.008a6.219,6.219,0,0,0,1.636.378,1.4,1.4,0,0,0,1.51-1.258c0-1.763-3.272-1.258-3.272-3.775,0-1.385,1.006-2.14,2.517-2.14a3.9,3.9,0,0,1,1.635.376l-.127,1.007Zm2.014.879h1.132V121.9H98.829Zm0-2.39h1.132v1.132H98.829Zm3.021,2.39h1.006v.882a2.216,2.216,0,0,1,1.887-1.006c1.511,0,2.14.88,2.14,2.516V121.9h-1.008V119c0-1.385-.376-2.014-1.258-2.014-1.132,0-1.762.882-1.762,2.266V121.9h-1.006v-5.663h0Zm9.186,4.909a1.848,1.848,0,0,1-1.635-2.014c0-1.008.5-2.14,1.635-2.14s1.637,1.008,1.637,2.14S112.043,121.143,111.036,121.143Zm2.643-4.909h-.88v.882h-.126a1.645,1.645,0,0,0-1.762-1.006,2.817,2.817,0,0,0-2.643,3.02,2.513,2.513,0,0,0,2.516,2.769,2.431,2.431,0,0,0,1.887-.882v.629c0,1.258-.629,1.887-1.762,1.887a3.992,3.992,0,0,1-2.014-.5l-.126,1.006a4.3,4.3,0,0,0,2.014.378c2.014,0,2.894-1.008,2.894-2.643v-5.538h0Zm5.285,3.524a1.489,1.489,0,0,1-1.635,1.511,1.1,1.1,0,0,1-1.134-1.008c0-1.006,1.511-1.006,2.014-1.006h.755Zm-3.145-2.265a4.105,4.105,0,0,1,1.635-.5c1.134,0,1.511.5,1.511,1.511a3.863,3.863,0,0,0-1.132-.126c-1.132,0-2.643.5-2.643,1.887a1.761,1.761,0,0,0,2.014,1.887,2.309,2.309,0,0,0,1.762-.88h.126v.629h.882v-3.4c0-1.637-.629-2.391-2.266-2.391a4.161,4.161,0,0,0-1.887.5v.882Zm10.192,1.636c.126.882-.376,2.14-1.509,2.14-1.258,0-1.763-1.258-1.763-2.14a1.9,1.9,0,0,1,1.763-2.14C125.634,116.989,126.137,118,126.011,119.129Zm-4.278,5.16h1.006v-3.146h.126a2.024,2.024,0,0,0,1.887,1.006c1.762,0,2.391-1.635,2.391-3.146s-.754-2.894-2.391-2.894a2.421,2.421,0,0,0-2.014,1.006v-.882h-1.006Zm7.551-5.16a2,2,0,0,1,1.887-2.14,1.9,1.9,0,0,1,1.763,2.14,1.848,1.848,0,1,1-3.65,0Zm-1.133,0a2.958,2.958,0,1,0,5.915,0,2.879,2.879,0,0,0-2.9-3.02A2.908,2.908,0,0,0,128.151,119.129Zm7.3-2.9h1.006v.882a1.637,1.637,0,0,1,1.511-1.006,1.148,1.148,0,0,1,.629.124v.882c-.126,0-.378-.126-.5-.126-1.008,0-1.637.882-1.637,2.391V121.9H135.45v-5.664Zm5.033,2.266a1.646,1.646,0,0,1,1.635-1.511A1.424,1.424,0,0,1,143.5,118.5Zm3.649,2.14a2.883,2.883,0,0,1-1.762.629,1.854,1.854,0,0,1-1.887-1.889h4.152c0-1.887-.629-3.27-2.516-3.27A2.648,2.648,0,0,0,139.477,119c0,1.887.882,3.146,2.9,3.146a4.61,4.61,0,0,0,1.762-.376V120.64Zm7.425-35.363c2.138,2.014,6.418,3.775,11.578,3.9,4.531.125,8.179-1.258,8.432-5.033.5-8.054-20.388-4.908-19.506-18.625.376-6.8,7.173-9.061,14.472-8.935a24.6,24.6,0,0,1,10.193,2.139v4.783a19.882,19.882,0,0,0-9.438-3.021c-4.656,0-8.432.755-8.432,4.153-.126,7.173,20.888,5.412,20.135,19-.5,7.677-7.929,10.068-15.731,9.941-4.531-.125-8.934-1.007-11.578-2.392l-.125-5.913Zm-19.632,8.306c-9.69,0-15.226-4.279-15.226-13.214V57.591h7.173V80.368c0,5.538,2.767,8.81,8.053,8.81s7.929-3.272,7.929-8.81V57.591h7.3V80.368c0,8.935-5.54,13.214-15.23,13.214ZM104.87,57.591V83.137L88.258,59.478a4.356,4.356,0,0,0-3.524-1.887H79.2V92.45h4.908V66.9l16.485,23.658a4.591,4.591,0,0,0,3.651,1.888h5.41V57.591H104.87Z" transform="translate(-3.492 0)"/>
      <path id="Path_6" data-name="Path 6" class="cls-6" d="M58.543,116.494c-7.048,11.2-18.877,15.226-20.512,15.856-1.636-.629-13.465-4.654-20.513-15.856-7.173-11.327-7.424-20.261-7.424-21.519V82.013H65.969V94.974c0,1.258-.252,10.192-7.425,21.519Z" transform="translate(-0.079 -1.265)"/>
      <path id="Path_7" data-name="Path 7" class="cls-7" d="M51.81,87.574Z" transform="translate(-2.155 -1.542)"/>
      <path id="Path_8" data-name="Path 8" class="cls-5" d="M63.59,92.618a2.617,2.617,0,0,0-1.51-1.887c-2.014-1.006-4.531-.377-6.67.5a39.915,39.915,0,0,1-4.154,1.007c-1.51.252-6.293.754-7.8-.5-.252-.125-.377-.5-.5-.754a3.658,3.658,0,0,1,.377-1.385A4.414,4.414,0,0,1,46.1,88.97l3.775.125A3.74,3.74,0,0,0,52.263,90.1,10.109,10.109,0,0,0,57.3,89.85a3.26,3.26,0,0,1-.881-.377.982.982,0,0,1-.252-.629,3.053,3.053,0,0,0,1.258.252c1.006,0,1.51-.5,2.391-.755a8.272,8.272,0,0,1,1.887,0,3.636,3.636,0,0,0-1.887-1.133,9.644,9.644,0,0,0-2.014,0A1.511,1.511,0,0,0,58.805,86.2a7.985,7.985,0,0,1-2.139.377c-1.133-.125-1.007-.5-3.146-.5A4.849,4.849,0,0,0,50,87.46c-1.762-.125-3.02-.252-3.9-.252-2.139,0-3.4.377-4.153,1.258a3.107,3.107,0,0,0-.881,2.643,3.249,3.249,0,0,0,1.133,2.139c2.014,1.636,7.551,1.133,9.438.881a28.614,28.614,0,0,0,4.154-1.007c1.007-.377,3.9-1.385,5.16-.755a1.274,1.274,0,0,1,.5.881.463.463,0,0,1,.125.377,1.775,1.775,0,0,1-.252.754c-1.133,1.258-5.412,1.51-7.173,1.636-.252,0-1.51-.253-3.146-.378a20.564,20.564,0,0,0-2.894.253,30.238,30.238,0,0,1-6.67-.126,14.308,14.308,0,0,1-3.776-.754,1.743,1.743,0,0,0-.629-1.133,2.043,2.043,0,0,0,2.014-1.006s-1.385-.377-1.385-1.133c0-.125.881,0,1.259-1.258-.881-.5-.629-.629-1.007-1.258a1.726,1.726,0,0,0-1.636-.755c.252-.125.252,0,.5-.252.5-.126.755-.755,1.133-.629a3.518,3.518,0,0,0-3.775-1.133c.126-.377.5-.629.5-1.007-1.133.252-2.265-.377-3.524-.125a2.365,2.365,0,0,0-1.887,1.51,2.366,2.366,0,0,0-1.888-1.51c-1.133-.252-2.391.377-3.524.125,0,.377.377.629.629,1.007-1.007-.377-3.146-.126-3.9,1.133.377-.126.629.5,1.133.629.252.252.377.252.5.252a1.847,1.847,0,0,0-1.636.755c-.377.629-.125.754-1.007,1.258.377,1.258,1.259,1.133,1.259,1.258,0,.755-1.385,1.133-1.385,1.133a2.043,2.043,0,0,0,2.014,1.006,1.885,1.885,0,0,0-.629,1.887,19.171,19.171,0,0,1-2.265-2.139,18.218,18.218,0,0,1-.754-2.139l-.252-.629v-.377c-.377-1.133-.629-2.014-1.133-2.139h-.629c-.252-.253-.5-.63-.755-.63a1.23,1.23,0,0,0-.881-.125,2.077,2.077,0,0,1,.629.755c.126,0,.126.125.126.252a.442.442,0,0,0-.253.125h-.125c0,.125-.126.125-.126.252h-.125a1.5,1.5,0,0,0-.881,0s.377.252.629.377a1.755,1.755,0,0,0-.377,1.133V90.6c-.629,0-.755.252-.755.252a1.943,1.943,0,0,1,.755.377.123.123,0,0,0,.125.125h-.125a1.137,1.137,0,0,0-.125.629,2.021,2.021,0,0,0,.629,1.385s1.007.755,1.133.881A12.554,12.554,0,0,0,16.4,96.266c.125.126.629,1.134,1.385,2.266a.949.949,0,0,0,.252.5c.125.629.252,1.511.377,2.14a16.223,16.223,0,0,1,0,2.643,2,2,0,0,0,1.132-.629,7.7,7.7,0,0,1,.252,1.887c-.125.629-.252,1.635-.252,1.635a8.886,8.886,0,0,0,1.385-.88c.252-.253.5-.755.754-1.008.629.378,2.391-.251,3.272-.629a4.682,4.682,0,0,0,.754,1.258c.126-.5.755-.88,1.007-1.258h.252a4.192,4.192,0,0,0,.377,2.266,13.983,13.983,0,0,0,1.51,2.014c-.252,1.006-.629,2.894-1.007,4.4a13.075,13.075,0,0,1-1.133,2.894c-.629,0-1.762.126-2.139.126a2.432,2.432,0,0,0-2.014.5.124.124,0,0,1-.126.126,1.359,1.359,0,0,0-.881.378,1.165,1.165,0,0,0-.377.754,1.944,1.944,0,0,1,.881-.376h.125v.126a.46.46,0,0,0,.125.376l-.125.126a1.509,1.509,0,0,0-.377.755,2.53,2.53,0,0,1,.755-.253c.125.126.252.378.5.5-.125,0-.125,0-.125.126a1.944,1.944,0,0,0-.252.755,3.612,3.612,0,0,1,.754-.376c0,.124.126.251.252.376.629.376,1.887.126,3.649-.376l1.007-.253a1.845,1.845,0,0,0,1.51-.882,1.346,1.346,0,0,0,.252-.754l.125-.253a6.37,6.37,0,0,1,.881-1.887s.5-.755,1.133-1.762a13.971,13.971,0,0,1,1.636-1.258c.754-.5,2.265-1.26,2.265-1.26a1.739,1.739,0,0,0-1.007-.754,5.44,5.44,0,0,1,1.385-1.008,6.165,6.165,0,0,1,1.636-.5,4.056,4.056,0,0,0-.881-1.006c.252,0,.377-.126.629-.378a3.473,3.473,0,0,1,3.02-.5A1.392,1.392,0,0,0,40.3,105.7c.5-.126.881-.253,1.385-.378l.629,1.258c.754.882,1.636,2.14,2.391,2.9a.123.123,0,0,1,.125.126c0,.251-.5,1.132-.629,1.635l-.252.5s-.754,1.763-1.007,2.393a13.56,13.56,0,0,1-2.265,0,2.166,2.166,0,0,0-1.887.629.123.123,0,0,0-.125.126.979.979,0,0,0-.881.376,1.509,1.509,0,0,0-.377.755,2.477,2.477,0,0,1,.881-.253h.125a.624.624,0,0,0,.125.378c-.125,0-.125.126-.252.251a1.954,1.954,0,0,0-.252.755,1.944,1.944,0,0,1,.881-.376c.125.126.125.251.252.376a.123.123,0,0,1-.125.126,1.944,1.944,0,0,0-.252.755,2.051,2.051,0,0,1,.754-.378l.377.378c.5.376,1.635.126,3.146-.253l1.007-.376a1.851,1.851,0,0,0,1.51-.882l.377-.629c.125-.253.252-.629.377-.882a5.506,5.506,0,0,0,.5-.88l.629-.629a16.665,16.665,0,0,1,1.762-1.008.931.931,0,0,0-.754-.5,3.858,3.858,0,0,1,1.007-.882,11.916,11.916,0,0,1,1.258-.5,7.859,7.859,0,0,0-1.007-.629,5.4,5.4,0,0,0-.629-.126,1.67,1.67,0,0,0-.377-.88c-.377-.629.252-2.14.629-2.9.252.253.629.882,1.385,1.637,0,0,2.139,2.264,2.643,2.894-.125.378-.5,1.511-.881,2.769a26.971,26.971,0,0,1-1.133,2.516H49.238a2.616,2.616,0,0,0-1.887.5l-.252.253c-.252.126-.5.253-.754.376-.377.5-.252.755-.252.755a1.105,1.105,0,0,1,.755-.251h.125a.462.462,0,0,0,.125.376c-.125,0-.125.126-.252.253a1.492,1.492,0,0,0-.252.754,2.046,2.046,0,0,1,.754-.376h.125a1.765,1.765,0,0,1,.377.5,1.509,1.509,0,0,0-.377.755,3.612,3.612,0,0,1,.754-.376.271.271,0,0,0,.252.251c.5.5,1.636.253,3.146-.251l1.007-.253a2.06,2.06,0,0,0,1.51-.882c.125-.251.754-1.887,1.006-2.264a19.45,19.45,0,0,1,1.007-2.391,1.762,1.762,0,0,0,.5-.378l1.887-1.132a1.3,1.3,0,0,0-.755-.629l1.007-.755a6.087,6.087,0,0,1,1.258-.5s-.629-.378-1.007-.629c-.252-.126-.629-.126-.881-.253-.125-.376-.252-.376-.5-.629a2.681,2.681,0,0,1-1.133-.88c-.629-.755-.754-2.14-.754-3.651V101.8a11.02,11.02,0,0,0-.5-3.524c2.139-.126,6.166-.629,7.676-2.643a2.855,2.855,0,0,0,.755-2.013,2.928,2.928,0,0,0-.119-1Z" transform="translate(-0.217 -1.427)"/>
      <path id="Path_9" data-name="Path 9" class="cls-3" d="M33.572,91.117c.252-.252,1.133-.881.629-1.636-.377-.881-1.51-.5-1.762-.377a20.443,20.443,0,0,0-2.391-1.133L29.167,89.1s-1.007-1.133-.881-1.133A13.992,13.992,0,0,0,25.9,89.1c-.377-.126-1.385-.5-1.887.377-.377.754.377,1.385.754,1.636L24.008,92.5l2.139,2.643v1.636l.881.629a12.019,12.019,0,0,1,.377,1.385,6.237,6.237,0,0,0,1.636.376h.126c.754-.126,1.635-.253,1.635-.376a10.253,10.253,0,0,0,.377-1.385l.881-.629V95.144L34.327,92.5l-.755-1.385Zm-7.551.126h2.013l-.125,1.133Zm4.531,1.132c0,.125.252,2.769.252,2.769l-1.385.755v1.008a.88.88,0,0,0,.5.251,1.59,1.59,0,0,0,1.006.126h.126l-.126.376a2.6,2.6,0,0,1-1.006,0,1.76,1.76,0,0,1-.629-.376h-.252c-.125,0-.252.253-.629.376a2.331,2.331,0,0,1-1.007,0H27.28v-.376h.125a1.228,1.228,0,0,0,.881-.126c.252,0,.5-.251.629-.251V95.9a15.761,15.761,0,0,1-1.51-1.006h2.643v-3.65h2.391s-1.762,1.133-1.887,1.133ZM48.3,110.623c.252-.251.377-.376.377-.629,0-.124-.125-.251-.252-.629a1.059,1.059,0,0,1-.252-.88,5.537,5.537,0,0,1,1.007-2.769q-.188-.189-.377-.376l-.125-.126a2.534,2.534,0,0,1-1.007-1.008.123.123,0,0,1-.125-.124,13.049,13.049,0,0,0-3.4.376,1.146,1.146,0,0,1,.5,1.006,5.22,5.22,0,0,0-2.391-.124c.252.376.5.88.629,1.006a25.427,25.427,0,0,0,2.265,2.9.651.651,0,0,1,.252.5,6.4,6.4,0,0,1-.754,1.887l-.125.5-1.133,2.643h-.125c-.126,0-1.888.126-2.517.126a1.552,1.552,0,0,0-1.385.251v.5c-.126.124-.252.251-.252.251v.126a2.192,2.192,0,0,1,.629-.126s.252.253.125.5a.653.653,0,0,1-.252.5.123.123,0,0,1,.125.126,1.5,1.5,0,0,1,.755-.253,1.539,1.539,0,0,1,.252.629.926.926,0,0,1-.252.376,10.155,10.155,0,0,0,2.516-.376l1.133-.376a1.7,1.7,0,0,0,1.133-.629l.252-.631c.126-.251.252-.629.377-.88a16.469,16.469,0,0,0,1.133-2.14,9.5,9.5,0,0,1,1.258-2.139Zm-23.658-9.941a2.68,2.68,0,0,1-1.888.88,3.437,3.437,0,0,0-.252-2.012,19.075,19.075,0,0,1-1.132-2.266c-.126-.253-.126-.376-.252-.5a16.462,16.462,0,0,1-3.02-2.769,10.056,10.056,0,0,1-.755-2.265l-.252-.629v-.377a9.335,9.335,0,0,0-.754-1.762h-.252s-.125.377-.629.252h-.378l-.125.125a4.883,4.883,0,0,1,.5.629.86.86,0,0,1-.5.5.967.967,0,0,1-.63-.252v-.252a2.148,2.148,0,0,0-.125.881,5.941,5.941,0,0,1,.755.629.551.551,0,0,1-.377.5.384.384,0,0,1-.5,0,1.537,1.537,0,0,0,.5,1.132l1.132.881.126.125a7.875,7.875,0,0,0,1.007,1.888,19.824,19.824,0,0,1,1.385,2.391c1.385,2.266,3.272,5.538,3.775,6.167a5.753,5.753,0,0,0,2.769-.755c-.379-1.258,0-2.014-.127-3.145Z" transform="translate(-0.277 -1.562)"/>
      <path id="Path_10" data-name="Path 10" class="cls-3" d="M63.6,92.872a1.975,1.975,0,0,0-1.258-1.51c-1.762-1.007-4.154-.252-6.293.5A22.239,22.239,0,0,1,51.9,92.873c-2.014.252-6.67.881-8.306-.5a2.4,2.4,0,0,1-.629-1.258,3.636,3.636,0,0,1,.5-1.762c.5-.5,1.51-.755,3.146-.755h3.9l.252-.252-.252-.252c-1.762-.126-3.02-.252-3.9-.252-2.014,0-3.146.377-3.775,1.133a3.076,3.076,0,0,0-.755,2.265A2.835,2.835,0,0,0,43.088,93c1.762,1.385,6.8,1.006,8.935.629a29.2,29.2,0,0,0,4.026-.882h.126c1.133-.377,4.153-1.385,5.537-.629.377.126.629.5.881,1.007a1.724,1.724,0,0,1-.377,1.636c-1.258,1.635-5.411,1.762-7.551,1.888h-.126a16.958,16.958,0,0,0-3.021-.253,22.184,22.184,0,0,0-2.894.126,31.433,31.433,0,0,1-6.8-.126,23.92,23.92,0,0,1-3.65-.629c-.125.378-.252.882-.5,1.511a19.229,19.229,0,0,1-1.133,2.266,3.437,3.437,0,0,0-.252,2.012c-.881-.124-1.51-.376-1.762-.88-.252,1.509.5,2.391-1.258,4.907-.125-.755-1.133-1.006-1.133-1.762-.252.755.252,1.258-.5,2.769a9.232,9.232,0,0,1-1.762,2.264c-.252,1.008-.629,2.769-1.007,4.28a9.066,9.066,0,0,1-1.258,3.146v.126h-.126a17.91,17.91,0,0,1-2.516.124,2.482,2.482,0,0,0-1.385.253.38.38,0,0,1,0,.5c-.125.253-.252.253-.377.378h.125a2.686,2.686,0,0,1,.755-.126,1.333,1.333,0,0,1,0,.755c-.126.124-.126.251-.252.251,0,.126.125.126.125.253a1.8,1.8,0,0,1,.881-.253.8.8,0,0,1,.125.755c-.125.126-.125.253-.252.253a9.487,9.487,0,0,0,3.02-.5l1.007-.251c.629-.126,1.007-.253,1.258-.755a1.311,1.311,0,0,0,.125-.5l.126-.378a9.339,9.339,0,0,1,1.006-1.887c1.007-1.762,4.4-7.173,4.531-7.676a5.346,5.346,0,0,0-.252-1.385l-.125-.251s10.7-3.147,11.326-3.272a7.3,7.3,0,0,0-.629-1.134l.377-.376a13.812,13.812,0,0,1,1.385,1.132A9.278,9.278,0,0,1,49,103.95l.252.251a5.308,5.308,0,0,0,.881,1.258v.126a14.373,14.373,0,0,0,1.51,1.887l2.768,3.022v.124s-.377,1.511-.881,3.147a27.661,27.661,0,0,1-1.258,2.643v.124H49.756a3.357,3.357,0,0,0-1.385.253c0,.253.125.376,0,.629-.125.126-.252.253-.377.253l.125.124a2.222,2.222,0,0,1,.629-.124.632.632,0,0,1,.126.629c0,.251-.126.376-.252.376l.125.126a2.156,2.156,0,0,1,1.007-.253,1.537,1.537,0,0,1,.125.629c-.125.126-.252.253-.252.378a8.231,8.231,0,0,0,2.265-.5l1.133-.251a1.544,1.544,0,0,0,1.133-.755,18.388,18.388,0,0,0,1.007-2.14,43.119,43.119,0,0,1,2.265-4.781l.377-.629a1.091,1.091,0,0,0,.377-.755c0-.253,0-.253-.252-.378a5.032,5.032,0,0,1-1.258-1.006c-.881-1.132-.881-3.146-.881-5.033v-1.385a15.411,15.411,0,0,0-.5-3.651l-.125-.376h.252c2.014-.126,6.166-.5,7.677-2.391A2.818,2.818,0,0,0,63.6,92.872Z" transform="translate(-0.731 -1.555)"/>
      <path id="Path_11" data-name="Path 11" class="cls-6" d="M54.432,70.755a2.731,2.731,0,0,1,.629,1.007H53.928A2.546,2.546,0,0,1,54.432,70.755Z" transform="translate(-2.26 -0.705)"/>
      <path id="Path_12" data-name="Path 12" class="cls-3" d="M58.919,67.228v-.252a6.418,6.418,0,0,0-12.836,0v.252a6.273,6.273,0,0,0-3.4,5.663A6.445,6.445,0,0,0,49.1,79.308,6.333,6.333,0,0,0,52.5,78.3a6.328,6.328,0,0,0,3.4,1.006,6.445,6.445,0,0,0,6.418-6.418A6.565,6.565,0,0,0,58.919,67.228ZM52,73.394h1.007a2.637,2.637,0,0,1-.5,1.385,4.5,4.5,0,0,1-.5-1.385Zm3.524-.755a6.174,6.174,0,0,0,2.768-2.894A3.816,3.816,0,0,1,59.8,72.89a3.921,3.921,0,0,1-3.9,3.9,6.282,6.282,0,0,1-1.51-.252,6.554,6.554,0,0,0,1.133-3.65v-.252ZM49.1,66.472h-.5a3.94,3.94,0,0,1,7.8,0h-.5a6.662,6.662,0,0,0-3.4,1.007A6.315,6.315,0,0,0,49.1,66.472Zm6.8,2.517a8.229,8.229,0,0,1-1.007,1.133,3.142,3.142,0,0,0-.5-.881A3.2,3.2,0,0,1,55.9,68.99Zm-9.186.755a6.835,6.835,0,0,0,2.768,2.894v.252a6.878,6.878,0,0,0,1.133,3.524,3.351,3.351,0,0,1-1.51.377,3.921,3.921,0,0,1-3.9-3.9A4.193,4.193,0,0,1,46.713,69.744Zm3.4.378A4.339,4.339,0,0,1,49.1,68.99a2.948,2.948,0,0,1,1.51.252c-.126.251-.377.629-.5.881ZM36.519,62.068a43.535,43.535,0,0,0-5.411-.377,14.115,14.115,0,0,0-5.16,1.007,14.135,14.135,0,0,0-5.16-1.007,43.58,43.58,0,0,0-5.412.377l-.252.125V77.42l.377-.125a22.283,22.283,0,0,1,4.908-.5A15.8,15.8,0,0,1,25.821,77.8h.252a15.806,15.806,0,0,1,5.411-1.006,23.749,23.749,0,0,1,4.908.5l.377.125V62.193Z" transform="translate(-0.329 -0.198)"/>
      <path id="Path_13" data-name="Path 13" class="cls-6" d="M25.611,63.551a13,13,0,0,0-4.782-1.007,31.841,31.841,0,0,0-4.908.377V74.5a27.7,27.7,0,0,1,4.656-.377,17.716,17.716,0,0,1,5.033.754Zm5.537-1.007a13.007,13.007,0,0,0-4.783,1.007V74.877a17.949,17.949,0,0,1,5.16-.754,27.318,27.318,0,0,1,4.531.377V62.922A31.693,31.693,0,0,0,31.148,62.544Z" transform="translate(-0.369 -0.297)"/>
      <path id="Path_14" data-name="Path 14" class="cls-5" d="M18.151,64.643c-.252,0-.377.252-.377.5a.76.76,0,0,0,.754.377,11.766,11.766,0,0,1,2.643-.377,6.355,6.355,0,0,1,2.391.629.759.759,0,0,0,.754-.377c.126-.125,0-.5-.377-.5a7.723,7.723,0,0,0-2.769-.629,10.039,10.039,0,0,0-3.019.376Zm0,2.265c-.252,0-.377.252-.377.5a.76.76,0,0,0,.754.377,17.247,17.247,0,0,1,2.643-.252,7.591,7.591,0,0,1,2.391.5,1.062,1.062,0,0,0,.754-.252c.126-.252,0-.5-.377-.629a7.723,7.723,0,0,0-2.769-.629,17.866,17.866,0,0,0-3.019.377Zm0,2.265c-.252,0-.377.252-.377.5a.76.76,0,0,0,.754.377,17.246,17.246,0,0,1,2.643-.252,7.591,7.591,0,0,1,2.391.5.559.559,0,0,0,.754-.252c.126-.252,0-.5-.377-.629A7.723,7.723,0,0,0,21.17,68.8a17.973,17.973,0,0,0-3.019.377Zm0,2.264a.691.691,0,0,0-.377.629.56.56,0,0,0,.754.252,17.247,17.247,0,0,1,2.643-.252,7.591,7.591,0,0,1,2.391.5.559.559,0,0,0,.754-.252c.126-.252,0-.5-.377-.63a9.329,9.329,0,0,0-2.769-.5,26.745,26.745,0,0,0-3.019.252Zm15.857-6.8c.377,0,.5.252.377.5,0,.252-.377.377-.629.377a13.639,13.639,0,0,0-2.769-.377,6.355,6.355,0,0,0-2.391.629.691.691,0,0,1-.629-.377.34.34,0,0,1,.252-.5,9.855,9.855,0,0,1,2.769-.629A8.646,8.646,0,0,1,34.008,64.643Zm0,2.265c.377,0,.5.252.377.5,0,.252-.377.377-.629.377a20.041,20.041,0,0,0-2.769-.252,7.591,7.591,0,0,0-2.391.5.962.962,0,0,1-.629-.252.459.459,0,0,1,.252-.629,9.855,9.855,0,0,1,2.769-.629A14.222,14.222,0,0,1,34.008,66.909Zm0,2.265c.377,0,.5.252.377.5,0,.252-.377.377-.629.377a20.04,20.04,0,0,0-2.769-.252,7.591,7.591,0,0,0-2.391.5.479.479,0,1,1-.377-.881,9.855,9.855,0,0,1,2.769-.629A14.292,14.292,0,0,1,34.008,69.174Zm0,2.264c.377.125.5.377.377.629,0,.252-.377.377-.629.252a20.041,20.041,0,0,0-2.769-.252,7.591,7.591,0,0,0-2.391.5.48.48,0,0,1-.377-.882,11.943,11.943,0,0,1,2.769-.5A21.2,21.2,0,0,1,34.008,71.439Z" transform="translate(-0.461 -0.383)"/>
      <path id="Path_15" data-name="Path 15" class="cls-6" d="M55.42,73.307a2.958,2.958,0,0,0,1.007-.252A5.5,5.5,0,0,1,55.42,76.2c-.252-.252-.629-.377-.754-.629a6.918,6.918,0,0,0,.754-2.265ZM54.161,61.352a5.726,5.726,0,0,1,0,11.451l-.5-.126c0-.252.125-.629.125-1.007h.377a4.594,4.594,0,1,0,0-9.187A4.645,4.645,0,0,0,49.5,66.636c-.377.125-.63.252-1.007.377a5.807,5.807,0,0,1,5.664-5.662Z" transform="translate(-1.99 -0.237)"/>
      <path id="Path_16" data-name="Path 16" class="cls-6" d="M57.382,67.577h.5a2.467,2.467,0,0,1-.125,1.007h-.377a3.985,3.985,0,0,0-2.014.5,1.467,1.467,0,0,0-.754-.754A5.369,5.369,0,0,1,57.382,67.577ZM50.587,78.9a5.663,5.663,0,1,1,0-11.326,5.554,5.554,0,0,1,5.16,3.272,1.429,1.429,0,0,1-1.007.377,4.565,4.565,0,0,0-4.153-2.643,4.656,4.656,0,1,0,0,9.311,3.688,3.688,0,0,0,2.014-.5,2.126,2.126,0,0,0,.755.754,5.373,5.373,0,0,1-2.769.757Z" transform="translate(-1.812 -0.547)"/>
      <path id="Path_17" data-name="Path 17" class="cls-6" d="M50.035,69.378a5.566,5.566,0,0,0,1.51,1.887,2.969,2.969,0,0,0-.252,1.007,4.954,4.954,0,0,1-2.265-2.516,8.53,8.53,0,0,1,1.007-.378Zm7.551,9.564a5.64,5.64,0,0,1-5.663-5.663,6.234,6.234,0,0,1,1.007-3.272,5.345,5.345,0,0,1,.881.629,4.434,4.434,0,0,0-.881,2.643,4.728,4.728,0,0,0,4.656,4.656A4.618,4.618,0,0,0,60.23,69.5a3.66,3.66,0,0,0,.252-1.133,5.68,5.68,0,0,1-2.9,10.572Z" transform="translate(-2.016 -0.587)"/>
    </g>
  </g>
</svg>
