<svg xmlns="http://www.w3.org/2000/svg" width="107.66" height="119.165" viewBox="0 0 107.66 119.165">
  <defs>
    <style>
      .cls-1 {
        fill: rgba(255,255,255,0);
      }

      .cls-1, .cls-2, .cls-3, .cls-4, .cls-5, .cls-6 {
        fill-rule: evenodd;
      }

      .cls-2 {
        fill: #db812e;
      }

      .cls-4 {
        fill: #1b3d76;
      }

      .cls-5 {
        fill: #fff;
      }

      .cls-6 {
        fill: #4a2c1d;
      }
    </style>
  </defs>
  <g id="nus_icon" transform="translate(0 0)">
    <path id="Path_28" data-name="Path 28" class="cls-1" d="M0,0H107.659V119.165H0Z" transform="translate(0 0)"/>
    <path id="Path_29" data-name="Path 29" class="cls-2" d="M90.9,107.573c0,.529.529,14.116-10.584,31.406a58.012,58.012,0,0,1-30.346,23.464h-.529c-.706-.177-19.055-5.823-30.169-23.464C9.034,123.1,8.5,110.4,8.5,108.1V57.114H90.9Z" transform="translate(2.825 -48.636)"/>
    <path id="Path_30" data-name="Path 30" class="cls-3" d="M81.6,103.4Z" transform="translate(26.055 -33.523)"/>
    <path id="Path_31" data-name="Path 31" class="cls-4" d="M88.428,90.549V58.439H10.094V90.725Z" transform="translate(3.354 -48.196)"/>
    <path id="Path_33" data-name="Path 33" class="cls-5" d="M78.018,130.354c-9.881,15.7-26.464,21.346-28.757,22.229-2.294-.882-18.877-6.525-28.758-22.229-10.057-15.88-10.409-28.405-10.409-30.169V82.013H88.428v18.171C88.428,101.948,88.075,114.474,78.018,130.354Z" transform="translate(3.354 -40.365)"/>
    <path id="Path_34" data-name="Path 34" class="cls-6" d="M51.81,87.574Z" transform="translate(17.212 -38.517)"/>
    <path id="Path_35" data-name="Path 35" class="cls-4" d="M83.976,95.576a3.669,3.669,0,0,0-2.117-2.646c-2.823-1.411-6.352-.529-9.351.706a55.965,55.965,0,0,1-5.823,1.412c-2.117.353-8.822,1.058-10.939-.706-.353-.176-.529-.706-.706-1.058a5.128,5.128,0,0,1,.529-1.941c.529-.529,1.941-.882,3.881-.882l5.293.176C65.1,90.99,65.8,91.7,68.1,92.048a14.173,14.173,0,0,0,7.057-.353,4.57,4.57,0,0,1-1.235-.529,1.377,1.377,0,0,1-.353-.882,4.281,4.281,0,0,0,1.764.353c1.411,0,2.117-.706,3.352-1.058a11.6,11.6,0,0,1,2.646,0,5.1,5.1,0,0,0-2.646-1.588,13.521,13.521,0,0,0-2.823,0,2.118,2.118,0,0,0,1.411-1.411,11.194,11.194,0,0,1-3,.529c-1.588-.176-1.412-.706-4.411-.706a6.8,6.8,0,0,0-4.94,1.941c-2.47-.176-4.234-.353-5.469-.353-3,0-4.763.529-5.822,1.764a4.356,4.356,0,0,0-1.235,3.7,4.555,4.555,0,0,0,1.588,3c2.823,2.294,10.586,1.588,13.232,1.235a40.118,40.118,0,0,0,5.823-1.412c1.412-.529,5.469-1.941,7.234-1.059a1.787,1.787,0,0,1,.706,1.235.649.649,0,0,1,.176.529,2.489,2.489,0,0,1-.353,1.058c-1.588,1.764-7.587,2.117-10.057,2.294-.353,0-2.117-.354-4.411-.53a28.828,28.828,0,0,0-4.058.354,42.393,42.393,0,0,1-9.351-.177,20.06,20.06,0,0,1-5.294-1.058,2.443,2.443,0,0,0-.882-1.588c1.059.353,2.47-.706,2.823-1.411,0,0-1.941-.529-1.941-1.588,0-.176,1.235,0,1.765-1.764-1.235-.706-.882-.882-1.412-1.764a2.42,2.42,0,0,0-2.294-1.059c.353-.176.353,0,.706-.353.706-.177,1.059-1.059,1.588-.882-1.058-1.765-4.058-2.117-5.293-1.588.177-.529.706-.882.706-1.412-1.588.353-3.176-.529-4.94-.176a3.315,3.315,0,0,0-2.646,2.117,3.317,3.317,0,0,0-2.647-2.117c-1.588-.353-3.352.529-4.94.176,0,.529.529.882.882,1.412-1.412-.529-4.411-.177-5.469,1.588.529-.177.882.7,1.588.882.353.353.529.353.706.353a2.589,2.589,0,0,0-2.294,1.059c-.529.882-.176,1.058-1.412,1.764.529,1.764,1.765,1.588,1.765,1.764,0,1.059-1.941,1.588-1.941,1.588.353.7,1.764,1.764,2.823,1.411a2.642,2.642,0,0,0-.882,2.646,26.879,26.879,0,0,1-3.176-3,25.542,25.542,0,0,1-1.058-3l-.353-.882v-.529c-.529-1.588-.882-2.823-1.588-3h-.882c-.353-.354-.706-.883-1.059-.883a1.724,1.724,0,0,0-1.235-.176,2.911,2.911,0,0,1,.882,1.059c.177,0,.177.176.177.353a.62.62,0,0,0-.354.176h-.176c0,.176-.177.176-.177.353h-.176a2.106,2.106,0,0,0-1.235,0s.529.353.882.529a2.461,2.461,0,0,0-.529,1.588v.176c-.882,0-1.059.353-1.059.353a2.724,2.724,0,0,1,1.059.529.172.172,0,0,0,.176.176h-.176a1.594,1.594,0,0,0-.176.882,2.834,2.834,0,0,0,.882,1.941s1.412,1.059,1.588,1.235a17.6,17.6,0,0,0,1.588,2.822c.176.177.882,1.589,1.941,3.177a1.33,1.33,0,0,0,.353.7c.176.882.353,2.118.529,3a22.743,22.743,0,0,1,0,3.7,2.8,2.8,0,0,0,1.587-.882,10.8,10.8,0,0,1,.353,2.646c-.176.882-.353,2.293-.353,2.293a12.459,12.459,0,0,0,1.941-1.234c.353-.354.706-1.059,1.058-1.413.882.53,3.352-.352,4.587-.882a6.564,6.564,0,0,0,1.058,1.764c.177-.7,1.059-1.234,1.412-1.764h.353a5.876,5.876,0,0,0,.529,3.177,19.6,19.6,0,0,0,2.117,2.823c-.353,1.411-.882,4.057-1.412,6.175a18.331,18.331,0,0,1-1.588,4.057c-.882,0-2.47.177-3,.177a3.409,3.409,0,0,0-2.823.7.174.174,0,0,1-.177.177,1.9,1.9,0,0,0-1.235.53,1.634,1.634,0,0,0-.529,1.056,2.725,2.725,0,0,1,1.235-.528h.176v.177a.645.645,0,0,0,.176.528l-.176.177A2.116,2.116,0,0,0,25.4,132.1a3.547,3.547,0,0,1,1.059-.354c.176.177.353.53.7.7-.176,0-.176,0-.176.177a2.725,2.725,0,0,0-.353,1.059,5.065,5.065,0,0,1,1.058-.528c0,.175.177.352.353.528.882.528,2.646.177,5.116-.528l1.412-.354a2.587,2.587,0,0,0,2.117-1.236,1.887,1.887,0,0,0,.353-1.056l.176-.354a8.931,8.931,0,0,1,1.235-2.646s.706-1.059,1.588-2.47a19.59,19.59,0,0,1,2.294-1.764c1.058-.707,3.176-1.767,3.176-1.767a2.437,2.437,0,0,0-1.412-1.056,7.626,7.626,0,0,1,1.941-1.413,8.644,8.644,0,0,1,2.294-.7,5.687,5.687,0,0,0-1.235-1.411c.353,0,.529-.177.882-.53a4.868,4.868,0,0,1,4.234-.7,1.951,1.951,0,0,0-.882-1.764c.706-.177,1.235-.354,1.941-.53l.882,1.764c1.058,1.236,2.294,3,3.352,4.059a.173.173,0,0,1,.176.177c0,.352-.706,1.587-.882,2.293l-.353.7s-1.058,2.471-1.412,3.355a19.01,19.01,0,0,1-3.176,0c-1.235,0-2.117.177-2.646.882a.173.173,0,0,0-.176.177,1.372,1.372,0,0,0-1.235.528,2.116,2.116,0,0,0-.529,1.059,3.473,3.473,0,0,1,1.235-.354h.176a.874.874,0,0,0,.176.53c-.176,0-.176.177-.353.352a2.739,2.739,0,0,0-.353,1.059,2.725,2.725,0,0,1,1.235-.528c.176.177.176.352.353.528a.173.173,0,0,1-.176.177,2.726,2.726,0,0,0-.353,1.059,2.875,2.875,0,0,1,1.058-.53l.529.53c.706.528,2.293.177,4.411-.354l1.412-.528a2.6,2.6,0,0,0,2.117-1.236l.529-.882c.176-.354.353-.882.529-1.236a7.72,7.72,0,0,0,.706-1.234l.882-.882a23.359,23.359,0,0,1,2.47-1.414,1.3,1.3,0,0,0-1.058-.7,5.409,5.409,0,0,1,1.412-1.236,16.72,16.72,0,0,1,1.764-.7,11.019,11.019,0,0,0-1.412-.882,7.573,7.573,0,0,0-.882-.177,2.341,2.341,0,0,0-.529-1.234c-.529-.882.353-3,.882-4.059.353.354.882,1.236,1.941,2.3,0,0,3,3.175,3.7,4.057-.176.53-.7,2.118-1.235,3.882a37.812,37.812,0,0,1-1.588,3.528h-3a3.668,3.668,0,0,0-2.646.7l-.353.354c-.353.177-.7.354-1.058.528-.529.707-.353,1.059-.353,1.059a1.549,1.549,0,0,1,1.059-.352h.176a.647.647,0,0,0,.176.528c-.176,0-.176.177-.353.354a2.092,2.092,0,0,0-.353,1.056,2.869,2.869,0,0,1,1.058-.528h.176a2.475,2.475,0,0,1,.529.7,2.116,2.116,0,0,0-.529,1.059,5.063,5.063,0,0,1,1.058-.528.381.381,0,0,0,.353.352c.706.7,2.294.354,4.411-.352l1.412-.354a2.888,2.888,0,0,0,2.117-1.236c.176-.352,1.058-2.646,1.411-3.175a27.267,27.267,0,0,1,1.412-3.352,2.471,2.471,0,0,0,.706-.53l2.646-1.587a1.826,1.826,0,0,0-1.059-.882l1.412-1.059a8.536,8.536,0,0,1,1.764-.7s-.882-.53-1.412-.882c-.353-.177-.882-.177-1.235-.354-.176-.528-.353-.528-.706-.882a3.759,3.759,0,0,1-1.588-1.234c-.882-1.059-1.058-3-1.058-5.118v-3.352a15.449,15.449,0,0,0-.706-4.941c3-.177,8.645-.882,10.762-3.7a4,4,0,0,0,1.059-2.822,4.105,4.105,0,0,0-.167-1.408Z" transform="translate(4.276 -39.286)"/>
    <path id="Path_36" data-name="Path 36" class="cls-2" d="M41.412,92.382c.353-.353,1.588-1.235.882-2.294-.529-1.235-2.117-.706-2.47-.529a28.663,28.663,0,0,0-3.352-1.588l-1.235,1.588S33.825,87.971,34,87.971a19.619,19.619,0,0,0-3.352,1.588c-.529-.177-1.941-.706-2.646.529-.529,1.058.529,1.941,1.058,2.294L28,94.323l3,3.7v2.294l1.235.882a16.846,16.846,0,0,1,.529,1.941,8.743,8.743,0,0,0,2.294.528h.177c1.058-.177,2.293-.354,2.293-.528a14.377,14.377,0,0,0,.529-1.941l1.235-.882V98.028l3.176-3.7Zm-10.586.177h2.822l-.176,1.588Zm6.352,1.587c0,.176.353,3.882.353,3.882L35.59,99.086V100.5a1.234,1.234,0,0,0,.706.352,2.229,2.229,0,0,0,1.411.177h.177l-.177.528a3.648,3.648,0,0,1-1.411,0,2.468,2.468,0,0,1-.882-.528h-.353c-.176,0-.353.354-.882.528a3.268,3.268,0,0,1-1.412,0h-.176v-.528h.176A1.721,1.721,0,0,0,34,100.851c.353,0,.706-.352.882-.352V99.086a22.1,22.1,0,0,1-2.117-1.411h3.7V92.558h3.352s-2.47,1.588-2.646,1.588Zm24.876,25.582c.353-.352.529-.528.529-.882,0-.174-.176-.352-.353-.882a1.484,1.484,0,0,1-.353-1.234,7.762,7.762,0,0,1,1.412-3.882q-.263-.265-.529-.528l-.176-.177a3.553,3.553,0,0,1-1.412-1.413.172.172,0,0,1-.176-.175,18.293,18.293,0,0,0-4.764.528,1.607,1.607,0,0,1,.706,1.411,7.318,7.318,0,0,0-3.352-.175c.353.528.706,1.234.882,1.411a35.64,35.64,0,0,0,3.176,4.059.913.913,0,0,1,.353.7,8.967,8.967,0,0,1-1.058,2.646l-.176.7-1.588,3.7H55c-.177,0-2.647.177-3.529.177a2.176,2.176,0,0,0-1.941.352v.707c-.177.174-.353.352-.353.352v.177a3.073,3.073,0,0,1,.882-.177s.353.354.176.707a.915.915,0,0,1-.353.7.173.173,0,0,1,.176.177,2.1,2.1,0,0,1,1.059-.354,2.158,2.158,0,0,1,.353.882,1.3,1.3,0,0,1-.353.528c.7.177,2.47-.352,3.528-.528l1.588-.528a2.385,2.385,0,0,0,1.588-.882l.353-.885c.177-.352.353-.882.529-1.234a23.089,23.089,0,0,0,1.588-3,13.315,13.315,0,0,1,1.764-3ZM28.887,105.792a3.758,3.758,0,0,1-2.647,1.234,4.818,4.818,0,0,0-.353-2.82,26.743,26.743,0,0,1-1.587-3.177c-.177-.354-.177-.528-.353-.7a23.08,23.08,0,0,1-4.234-3.882,14.1,14.1,0,0,1-1.059-3.176l-.353-.882v-.529a13.088,13.088,0,0,0-1.058-2.47H16.89s-.176.529-.882.353h-.53l-.176.176a6.846,6.846,0,0,1,.7.882,1.205,1.205,0,0,1-.7.706,1.355,1.355,0,0,1-.883-.353V90.8a3.011,3.011,0,0,0-.176,1.235,8.33,8.33,0,0,1,1.059.882.773.773,0,0,1-.529.706.538.538,0,0,1-.706,0,2.155,2.155,0,0,0,.706,1.587L16.36,96.44l.177.176a11.041,11.041,0,0,0,1.412,2.647,27.8,27.8,0,0,1,1.941,3.352c1.941,3.177,4.587,7.764,5.293,8.646.176.177,2.117-.177,3.882-1.059-.532-1.764,0-2.823-.179-4.41Z" transform="translate(4.673 -38.385)"/>
    <path id="Path_37" data-name="Path 37" class="cls-2" d="M79.838,94.9a2.769,2.769,0,0,0-1.764-2.117c-2.47-1.412-5.823-.353-8.822.706A31.173,31.173,0,0,1,63.43,94.9c-2.823.353-9.351,1.235-11.645-.706a3.361,3.361,0,0,1-.882-1.764,5.1,5.1,0,0,1,.706-2.47c.706-.706,2.117-1.059,4.411-1.059h5.469l.353-.353-.353-.353c-2.47-.177-4.234-.353-5.469-.353-2.823,0-4.411.529-5.293,1.588A4.312,4.312,0,0,0,49.668,92.6a3.975,3.975,0,0,0,1.412,2.47c2.47,1.941,9.527,1.411,12.527.882a40.934,40.934,0,0,0,5.645-1.236h.177c1.588-.529,5.822-1.941,7.763-.882.529.177.882.706,1.235,1.412a2.417,2.417,0,0,1-.529,2.294c-1.764,2.293-7.586,2.47-10.586,2.647h-.177a23.776,23.776,0,0,0-4.235-.354,31.107,31.107,0,0,0-4.058.177,44.066,44.066,0,0,1-9.527-.177,33.539,33.539,0,0,1-5.117-.882c-.176.53-.353,1.236-.7,2.118a26.961,26.961,0,0,1-1.588,3.177,4.818,4.818,0,0,0-.353,2.82c-1.235-.175-2.117-.528-2.47-1.234-.353,2.116.706,3.352-1.764,6.88-.176-1.059-1.588-1.411-1.588-2.47-.353,1.059.353,1.764-.706,3.882a12.942,12.942,0,0,1-2.47,3.175c-.353,1.413-.882,3.882-1.412,6a12.71,12.71,0,0,1-1.764,4.411v.177H29.2a25.112,25.112,0,0,1-3.528.175,3.479,3.479,0,0,0-1.941.354.533.533,0,0,1,0,.7c-.176.354-.353.354-.529.53h.176a3.765,3.765,0,0,1,1.059-.177,1.869,1.869,0,0,1,0,1.059c-.177.174-.177.352-.353.352,0,.177.176.177.176.354a2.519,2.519,0,0,1,1.235-.354,1.12,1.12,0,0,1,.176,1.059c-.176.177-.176.354-.353.354a13.3,13.3,0,0,0,4.234-.707l1.412-.352c.882-.177,1.412-.354,1.764-1.059a1.838,1.838,0,0,0,.176-.7l.177-.53a13.093,13.093,0,0,1,1.411-2.646c1.412-2.47,6.175-10.057,6.352-10.762a7.5,7.5,0,0,0-.353-1.941l-.176-.352s15-4.412,15.879-4.587a10.229,10.229,0,0,0-.882-1.589l.529-.528a19.364,19.364,0,0,1,1.941,1.587,13.008,13.008,0,0,1,1.588,2.3l.353.352a7.441,7.441,0,0,0,1.235,1.764v.177a20.15,20.15,0,0,0,2.117,2.646l3.881,4.236v.174s-.529,2.118-1.235,4.412a38.776,38.776,0,0,1-1.764,3.7v.175H60.429a4.707,4.707,0,0,0-1.941.354c0,.354.176.528,0,.882-.176.177-.353.354-.529.354l.176.175a3.115,3.115,0,0,1,.882-.175.886.886,0,0,1,.177.882c0,.352-.177.528-.353.528l.176.177a3.022,3.022,0,0,1,1.412-.354,2.155,2.155,0,0,1,.176.882c-.176.177-.353.354-.353.53a11.539,11.539,0,0,0,3.176-.707l1.588-.352a2.165,2.165,0,0,0,1.588-1.059,25.775,25.775,0,0,0,1.412-3,60.454,60.454,0,0,1,3.176-6.7l.529-.882a1.53,1.53,0,0,0,.529-1.059c0-.354,0-.354-.353-.53a7.054,7.054,0,0,1-1.764-1.411c-1.235-1.587-1.235-4.411-1.235-7.057V107.6a21.606,21.606,0,0,0-.706-5.118l-.176-.528h.353c2.823-.177,8.645-.7,10.763-3.352A3.95,3.95,0,0,0,79.838,94.9Z" transform="translate(7.709 -38.429)"/>
    <path id="Path_38" data-name="Path 38" class="cls-5" d="M54.634,70.755a3.828,3.828,0,0,1,.882,1.412H53.928A3.57,3.57,0,0,1,54.634,70.755Z" transform="translate(17.916 -44.105)"/>
    <path id="Path_39" data-name="Path 39" class="cls-2" d="M76.523,69.909v-.353a9,9,0,0,0-18,0v.353a8.794,8.794,0,0,0-4.764,7.939,9.036,9.036,0,0,0,9,9,8.879,8.879,0,0,0,4.764-1.411,8.872,8.872,0,0,0,4.764,1.411,9.036,9.036,0,0,0,9-9A9.2,9.2,0,0,0,76.523,69.909Zm-9.7,8.645h1.412a3.7,3.7,0,0,1-.706,1.941A6.309,6.309,0,0,1,66.82,78.554Zm4.94-1.059a8.656,8.656,0,0,0,3.881-4.058,5.35,5.35,0,0,1,2.117,4.411,5.5,5.5,0,0,1-5.469,5.47,8.805,8.805,0,0,1-2.117-.353,9.189,9.189,0,0,0,1.588-5.117Zm-9-8.645h-.706a5.523,5.523,0,0,1,10.937,0h-.706a9.34,9.34,0,0,0-4.764,1.412A8.852,8.852,0,0,0,62.762,68.85Zm9.527,3.529a11.535,11.535,0,0,1-1.412,1.588,4.406,4.406,0,0,0-.706-1.235A4.48,4.48,0,0,1,72.289,72.379ZM59.41,73.437a9.583,9.583,0,0,0,3.881,4.058v.353a9.643,9.643,0,0,0,1.588,4.94,4.7,4.7,0,0,1-2.117.529,5.5,5.5,0,0,1-5.469-5.47A5.879,5.879,0,0,1,59.41,73.437Zm4.763.53a6.083,6.083,0,0,1-1.411-1.588,4.133,4.133,0,0,1,2.117.353c-.177.352-.529.882-.706,1.235ZM45.118,62.675a61.033,61.033,0,0,0-7.586-.529A19.789,19.789,0,0,0,30.3,63.558a19.818,19.818,0,0,0-7.234-1.412,61.1,61.1,0,0,0-7.587.529l-.353.176V84.2l.529-.176a31.24,31.24,0,0,1,6.881-.706,22.146,22.146,0,0,1,7.586,1.411h.353a22.161,22.161,0,0,1,7.586-1.411,33.3,33.3,0,0,1,6.881.706l.529.176V62.851Z" transform="translate(5.025 -47.492)"/>
    <path id="Path_40" data-name="Path 40" class="cls-5" d="M29.506,63.956a18.227,18.227,0,0,0-6.7-1.412,44.638,44.638,0,0,0-6.881.529V79.3a38.824,38.824,0,0,1,6.528-.529,24.837,24.837,0,0,1,7.057,1.058Zm7.763-1.412a18.235,18.235,0,0,0-6.705,1.412V79.835A25.164,25.164,0,0,1,37.8,78.777a38.3,38.3,0,0,1,6.352.529V63.074a44.431,44.431,0,0,0-6.881-.53Z" transform="translate(5.289 -46.832)"/>
    <path id="Path_41" data-name="Path 41" class="cls-4" d="M18.3,64.795c-.353,0-.529.353-.529.706a1.065,1.065,0,0,0,1.058.529,16.5,16.5,0,0,1,3.7-.529,8.91,8.91,0,0,1,3.352.882,1.064,1.064,0,0,0,1.058-.529c.177-.176,0-.7-.529-.7a10.827,10.827,0,0,0-3.882-.882,14.074,14.074,0,0,0-4.232.528Zm0,3.176c-.353,0-.529.353-.529.706a1.065,1.065,0,0,0,1.058.529,24.178,24.178,0,0,1,3.7-.353,10.643,10.643,0,0,1,3.352.706,1.489,1.489,0,0,0,1.058-.353c.177-.353,0-.706-.529-.882a10.827,10.827,0,0,0-3.882-.882,25.049,25.049,0,0,0-4.232.529Zm0,3.176c-.353,0-.529.353-.529.706a1.065,1.065,0,0,0,1.058.529,24.18,24.18,0,0,1,3.7-.353,10.643,10.643,0,0,1,3.352.706.784.784,0,0,0,1.058-.353c.177-.353,0-.706-.529-.882a10.827,10.827,0,0,0-3.882-.882,25.2,25.2,0,0,0-4.232.529Zm0,3.175a.969.969,0,0,0-.529.882.785.785,0,0,0,1.058.353,24.179,24.179,0,0,1,3.7-.353,10.643,10.643,0,0,1,3.352.706.784.784,0,0,0,1.058-.353c.177-.353,0-.706-.529-.883a13.079,13.079,0,0,0-3.882-.7,37.494,37.494,0,0,0-4.232.353Zm22.231-9.527c.529,0,.706.353.529.706,0,.353-.529.529-.882.529A19.122,19.122,0,0,0,36.3,65.5a8.91,8.91,0,0,0-3.352.882.968.968,0,0,1-.882-.529.477.477,0,0,1,.353-.7,13.817,13.817,0,0,1,3.882-.882A12.122,12.122,0,0,1,40.534,64.795Zm0,3.176c.529,0,.706.353.529.706,0,.353-.529.529-.882.529a28.1,28.1,0,0,0-3.882-.353,10.643,10.643,0,0,0-3.352.706,1.348,1.348,0,0,1-.882-.353.643.643,0,0,1,.353-.882,13.816,13.816,0,0,1,3.882-.882A19.939,19.939,0,0,1,40.534,67.971Zm0,3.176c.529,0,.706.353.529.706,0,.353-.529.529-.882.529a28.1,28.1,0,0,0-3.882-.353,10.643,10.643,0,0,0-3.352.706.672.672,0,0,1-.529-1.235,13.816,13.816,0,0,1,3.882-.882A20.037,20.037,0,0,1,40.534,71.147Zm0,3.175c.529.176.706.529.529.882,0,.353-.529.529-.882.353A28.1,28.1,0,0,0,36.3,75.2a10.643,10.643,0,0,0-3.352.706.672.672,0,0,1-.529-1.236,16.744,16.744,0,0,1,3.882-.7A29.722,29.722,0,0,1,40.534,74.321Z" transform="translate(5.905 -46.26)"/>
    <path id="Path_42" data-name="Path 42" class="cls-5" d="M58.2,78.113a4.147,4.147,0,0,0,1.412-.353A7.714,7.714,0,0,1,58.2,82.17c-.353-.353-.882-.529-1.058-.882A9.7,9.7,0,0,0,58.2,78.113ZM56.438,61.352a8.028,8.028,0,0,1,0,16.054l-.706-.177c0-.353.176-.882.176-1.412h.529a6.441,6.441,0,1,0,0-12.88,6.513,6.513,0,0,0-6.528,5.823c-.529.176-.883.353-1.412.529A8.141,8.141,0,0,1,56.438,61.352Z" transform="translate(16.111 -47.228)"/>
    <path id="Path_43" data-name="Path 43" class="cls-5" d="M62.389,67.577H63.1a3.458,3.458,0,0,1-.176,1.412h-.529a5.587,5.587,0,0,0-2.823.7,2.057,2.057,0,0,0-1.058-1.058A7.527,7.527,0,0,1,62.389,67.577ZM52.863,83.456a7.939,7.939,0,1,1,0-15.879A7.786,7.786,0,0,1,60.1,72.164a2,2,0,0,1-1.412.529,6.4,6.4,0,0,0-5.822-3.7,6.527,6.527,0,1,0,0,13.054,5.171,5.171,0,0,0,2.823-.706,2.98,2.98,0,0,0,1.059,1.058A7.533,7.533,0,0,1,52.863,83.456Z" transform="translate(14.924 -45.16)"/>
    <path id="Path_44" data-name="Path 44" class="cls-5" d="M50.44,69.783a7.8,7.8,0,0,0,2.117,2.646,4.162,4.162,0,0,0-.353,1.412,6.946,6.946,0,0,1-3.176-3.528,11.951,11.951,0,0,1,1.412-.53ZM61.026,83.192a7.907,7.907,0,0,1-7.939-7.94A8.74,8.74,0,0,1,54.5,70.665a7.491,7.491,0,0,1,1.235.882,6.217,6.217,0,0,0-1.235,3.7,6.628,6.628,0,0,0,6.528,6.528,6.474,6.474,0,0,0,3.7-11.821,5.131,5.131,0,0,0,.353-1.588,7.964,7.964,0,0,1-4.059,14.821Z" transform="translate(16.288 -44.897)"/>
  </g>
</svg>
