<?xml version="1.0" encoding="utf-8"?>
<!-- Generator: Adobe Illustrator 19.0.0, SVG Export Plug-In . SVG Version: 6.00 Build 0)  -->
<svg version="1.1" id="Layer_1" xmlns="http://www.w3.org/2000/svg" xmlns:xlink="http://www.w3.org/1999/xlink" x="0px" y="0px"
	 viewBox="0 0 113.3 26.6" style="enable-background:new 0 0 113.3 26.6;" xml:space="preserve">
<style type="text/css">
	.st0{fill:#231F20;}
</style>
<path id="XMLID_4_" class="st0" d="M108.7,16.6c0.8,0,1.2,0.4,1.2,1.2c0,0.8-0.5,1.2-1.3,1.2c-0.8,0-1.2-0.4-1.2-1.2
	C107.4,17,107.9,16.6,108.7,16.6 M108.7,16.8c-0.6,0-0.8,0.5-0.8,1c0,0.6,0.2,1,0.7,1c0.6,0,0.8-0.5,0.8-1
	C109.4,17.3,109.1,16.8,108.7,16.8 M21.2,21.3v1.9h6.1v-1.9l-0.9,1h-1.2l-1-1l-1,1h-1.2L21.2,21.3z M17.2,7.7v1.9h6.1V7.7l-0.9,1
	h-1.2l-1-1l-1,1H18L17.2,7.7z M25.2,7.7v1.9h6.1V7.7l-0.9,1h-1.2l-1-1l-1,1h-1.2L25.2,7.7z M24.2,11.1c-1,0-1.4,0.7-2.4,0.7
	c-1,0-1.4-0.7-2.4-0.7c-0.9,0-1.3,0.7-2.2,0.7c-0.9,0-1.5-0.6-2.2-0.6v6c0,1.3,1,3.1,2.2,3.1c0.9,0,1.3-0.7,2.2-0.7
	c1,0,1.4,0.7,2.4,0.7c1,0,1.4-0.7,2.4-0.7c1,0,1.4,0.7,2.4,0.7c1,0,1.4-0.7,2.4-0.7c0.9,0,1.3,0.7,2.2,0.7c1.2,0,2.2-1.8,2.2-3.1v-6
	c-0.7,0-1.3,0.6-2.2,0.6c-0.9,0-1.3-0.7-2.2-0.7c-1,0-1.4,0.7-2.4,0.7C25.6,11.8,25.2,11.1,24.2,11.1 M24.2,26.6
	c-0.4,0-9.9-4.1-9.9-9.4V5.8h10h9.9v11.4C34.2,22.4,24.6,26.6,24.2,26.6 M22.8,17.7L22.4,17l0.4-0.7H22l-0.4-0.7l-0.4,0.7h-0.8
	l0.4,0.7l-0.4,0.7h0.8l0.4,0.7l0.4-0.7H22.8z M28.1,15.1l-0.4-0.7l0.4-0.7h-0.8l-0.4-0.7l-0.4,0.7h-0.8l0.4,0.7l-0.4,0.7h0.8
	l0.4,0.7l0.4-0.7H28.1z M24.3,15.1l-0.4-0.7l0.4-0.7h-0.8l-0.4-0.7l-0.4,0.7h-0.8l0.4,0.7l-0.4,0.7h0.8l0.4,0.7l0.4-0.7H24.3z
	 M26.6,17.7L26.2,17l0.4-0.7h-0.8l-0.4-0.7L25,16.3h-0.8l0.4,0.7l-0.4,0.7H25l0.4,0.7l0.4-0.7H26.6z M19.3,12.4h9.8v6.5h-9.8V12.4z
	 M12,11.3c-0.6,0-1.3-0.7-1.2-1.2c0.3-2.5,1.6-1.7,2.5-2.4C13.6,8.1,14,11.3,12,11.3 M41.7,13.5c0,0-0.1,1-1,1.7
	c0.5,0,1.4,0.1,1.6-0.6C42.4,14,41.8,13.6,41.7,13.5 M40.2,13.2c-1.9-0.1-2.6,1-2,1.5C39.4,15.5,40.2,13.2,40.2,13.2 M40.3,10.5
	c-0.2,0.3-0.6,0.5-1.1,0.6c0.5,0,1.4,0,1.9,0C40.7,11,40.3,10.5,40.3,10.5 M36.7,8.3c0,0.8,0.7,1.5,1.5,1.5c0.8,0,1.5-0.7,1.5-1.5
	S39,6.8,38.2,6.8C37.4,6.8,36.7,7.5,36.7,8.3 M42.6,9.5c0.2-0.3,0.6-0.3,1-0.2c0.4,0.1,0.7,0.5,0.6,0.8c2.1,0,2.7-0.5,2.7-0.5
	c-0.6,1.2-2.4,2-3.1,2c1,0.3,2.9,1.4,2.9,3.6c0,3.1-3,3.6-4.8,3.1c0.5,0.1,0.8,0.5,0.8,0.6h-7.7v-6.3c0.2-0.3,0.7-0.6,1.2-0.8
	c0.3-0.1,0.3-0.5,0.3-0.5c-0.9-0.2-1.6-1-1.6-1V6.6c0,0,0.9-1.3,3.1-1.3c1.7,0,2.7,1.5,2.7,1.5s0.7-0.6,2.2-0.6c3.2,0,4,3.1,4,3.1
	c-0.9-0.8-2.1-1.1-2.7-1.1c-0.1,0.3-0.3,0.5-0.7,0.5c-0.3,0-0.6-0.2-0.7-0.4l-0.3,0.2c0,0.1,0.1,0.2,0,0.3c0,0.2-0.1,0.4-0.3,0.5
	L42.6,9.5z M37.5,8.3c0-0.4,0.3-0.7,0.7-0.7c0.4,0,0.7,0.3,0.7,0.7c0,0.4-0.3,0.7-0.7,0.7C37.8,8.9,37.5,8.7,37.5,8.3 M13.5,11v8
	h-12c0,0,0.4-1.1,0.8-1.5C2,17.2,1.8,17,1.8,17c0,0,1.6-2.1,2.8-2.2c-0.2-0.2-0.4-0.4-0.4-0.4c0.4-0.5,1.2-0.5,3.6-0.7
	c2.5-0.2,2.8-0.9,2.9-2.9C11.3,11.6,12.3,12.5,13.5,11 M7.5,6.9C6.7,6.3,6.3,6.1,6,6.2C5.7,6.2,5.2,7.1,5.2,7.1
	C5.9,6.9,6.8,6.8,7.5,6.9 M4.5,10.2C3.9,9.7,3.2,8.8,3.1,8.1C3,7.6,3.4,7.3,3.4,7.3S3.2,6.9,3.3,6.6c0.3-1,5.2-1.1,6.2-1
	c2.3,0.1,2.8,0,3.9-0.4c0,0-0.4,1.7-2.5,1.6c0,0.2,0,0.2,0,0.3c0.8,0,1.8-0.2,2.4-0.9c0,0.6,0.2,1.3-1,1.6C11.3,8,10.6,8,10.2,11.1
	c-0.1,0.9,0,1.7-1.5,2c-1.4,0.3-5.2,0.4-5.8,0.9l-0.1-0.2c0.7-0.5,1.2-1.3,1.1-2.2c0.2-0.1,0.4-0.2,0.5-0.2c0,0.3-0.4,1,1.4,1
	c0,0,1.7,0.2,1-1.9C6.5,9.9,6.3,9.1,5.5,9.1c0,0-1,0-0.5,1.1c0.7,0.2,1.5,0.3,1.6,0.8c0.1,0.5-0.3,0.8-0.6,0.7
	c-0.3-0.1-1.1-0.6-1.7-0.6c-1.1,0-3.1,1.3-4.3-1.1c0.4,0.4,0.7,0.7,1.9,0.7C3.1,10.7,3.3,10.2,4.5,10.2 M106.7,0h1.3v0.3h-1.3V0z
	 M31.3,0h1.3v0.3h-1.3V0z M113,1.1v1.5c0,0.1,0,0.2,0,0.3c0,0,0.1,0,0.1,0.1l0.2,0V3c-0.2,0-0.3,0-0.5,0c-0.2,0-0.3,0-0.5,0V2.9
	l0.2,0c0.1,0,0.1,0,0.1-0.1c0,0,0-0.1,0-0.3V1.1c0-0.1,0-0.2,0-0.3c0,0-0.1,0-0.1,0l-0.2,0V0.6c0.2,0,0.3,0,0.5,0c0.2,0,0.3,0,0.5,0
	v0.1l-0.2,0c-0.1,0-0.1,0-0.1,0C113,0.8,113,0.9,113,1.1 M4.1,2.6V1.1c0-0.1,0-0.2,0-0.3H3.6c-0.1,0-0.1,0-0.1,0.1l0,0.3H3.3
	c0-0.2,0-0.4,0-0.5c0.2,0,0.5,0,0.7,0h0.5c0.2,0,0.5,0,0.7,0c0,0.2,0,0.4,0,0.5H5.1l0-0.3c0-0.1,0-0.1-0.1-0.1H4.5
	c0,0.1,0,0.2,0,0.3v1.4c0,0.1,0,0.2,0,0.3c0,0,0.1,0,0.1,0.1l0.2,0V3C4.6,3,4.5,3,4.3,3C4.1,3,4,3,3.8,3V2.9l0.2,0
	c0.1,0,0.1,0,0.1-0.1C4.1,2.8,4.1,2.7,4.1,2.6 M6.2,2.6V1.1c0-0.1,0-0.2,0-0.3c0,0-0.1,0-0.1-0.1l-0.2,0V0.6c0.2,0,0.4,0,0.6,0
	c0.3,0,0.6,0,0.8,0c0.2,0,0.3,0,0.4,0c0,0.1-0.1,0.3-0.1,0.5H7.5V0.9c0,0,0-0.1,0-0.1C7.3,0.8,7.1,0.8,6.8,0.8c-0.1,0-0.2,0-0.3,0
	v0.9c0.1,0,0.2,0,0.4,0c0.2,0,0.3,0,0.4,0c0,0,0,0,0-0.1l0-0.2h0.1c0,0.1,0,0.3,0,0.4c0,0.1,0,0.3,0,0.4H7.4l0-0.2c0,0,0-0.1,0-0.1
	c0,0-0.2,0-0.4,0c-0.2,0-0.3,0-0.4,0v0.9c0.1,0,0.2,0,0.3,0c0.3,0,0.6,0,0.7,0c0,0,0.1-0.2,0.1-0.4h0.1c0,0.2-0.1,0.4-0.1,0.6
	C7.6,3,7.3,3,7,3C6.8,3,6.5,3,6.3,3C6.2,3,6.1,3,5.9,3V2.9l0.1,0c0.1,0,0.1,0,0.1-0.1C6.2,2.8,6.2,2.7,6.2,2.6 M11.8,2.3l-0.4-1.1
	l-0.6,1.5c0,0.1-0.1,0.2-0.1,0.3h-0.2c0-0.1-0.1-0.2-0.1-0.3L10,0.9c0-0.1-0.1-0.2-0.2-0.2l-0.1,0V0.6c0.1,0,0.3,0,0.4,0
	c0.1,0,0.3,0,0.4,0v0.1l-0.1,0c-0.1,0-0.2,0-0.1,0.2l0.3,1.5l0.4-1c0.1-0.3,0.2-0.5,0.3-0.8h0.1c0,0.1,0.1,0.3,0.1,0.4l0.5,1.5
	l0.4-1.6c0-0.1,0-0.1-0.2-0.1l-0.1,0V0.6c0.1,0,0.2,0,0.4,0s0.2,0,0.4,0v0.1l-0.1,0c-0.1,0-0.1,0-0.1,0.1l-0.5,1.8
	c0,0.1-0.1,0.2-0.1,0.3h-0.2C12,2.7,11.9,2.5,11.8,2.3 M16,1.1v1.5c0,0.1,0,0.2,0,0.3c0,0,0.1,0,0.1,0.1l0.2,0V3c-0.2,0-0.3,0-0.5,0
	c-0.2,0-0.3,0-0.5,0V2.9l0.2,0c0.1,0,0.1,0,0.1-0.1c0,0,0-0.1,0-0.3V1.8c0,0-0.1,0-0.3,0h-0.8c-0.1,0-0.2,0-0.3,0v0.8
	c0,0.1,0,0.2,0,0.3c0,0,0.1,0,0.1,0.1l0.2,0V3c-0.2,0-0.3,0-0.5,0c-0.2,0-0.3,0-0.5,0V2.9l0.2,0c0.1,0,0.1,0,0.1-0.1
	c0,0,0-0.1,0-0.3V1.1c0-0.1,0-0.2,0-0.3c0,0-0.1,0-0.1-0.1l-0.2,0V0.6c0.2,0,0.3,0,0.5,0c0.2,0,0.3,0,0.5,0v0.1l-0.2,0
	c-0.1,0-0.1,0-0.1,0.1c0,0,0,0.1,0,0.3v0.6c0,0,0.1,0,0.3,0h0.8c0.1,0,0.2,0,0.3,0V1.1c0-0.1,0-0.2,0-0.3c0,0-0.1,0-0.1-0.1l-0.2,0
	V0.6c0.2,0,0.3,0,0.5,0c0.2,0,0.3,0,0.5,0v0.1l-0.2,0c-0.1,0-0.1,0-0.1,0.1C16,0.8,16,0.9,16,1.1 M17.8,2.1h0.9l-0.4-1L17.8,2.1z
	 M18.3,0.6l0.8,1.9c0,0.1,0.1,0.2,0.1,0.2c0,0.1,0.1,0.1,0.1,0.1l0.1,0V3c-0.1,0-0.3,0-0.4,0c-0.1,0-0.3,0-0.4,0V2.9l0.2,0
	c0.1,0,0.1,0,0.1-0.1c0,0,0-0.1-0.1-0.2l-0.2-0.4h-1l-0.1,0.2c0,0.1-0.1,0.3-0.1,0.4c0,0.1,0.1,0.1,0.2,0.1l0.1,0V3
	c-0.2,0-0.3,0-0.4,0c-0.1,0-0.3,0-0.4,0V2.9l0.1,0c0.1,0,0.1-0.1,0.2-0.2l0.6-1.4c0.1-0.2,0.2-0.5,0.3-0.7H18.3z M20.8,0.8v1.8
	c0,0.1,0,0.2,0,0.3c0,0,0.1,0,0.1,0.1l0.2,0V3c-0.2,0-0.3,0-0.5,0c-0.2,0-0.3,0-0.5,0V2.9l0.2,0c0.1,0,0.1,0,0.1-0.1
	c0,0,0-0.1,0-0.3V1.1c0-0.1,0-0.2,0-0.3c0,0-0.1,0-0.1-0.1l-0.1,0V0.6c0.2,0,0.4,0,0.6,0s0.4,0,0.6,0c0.5,0,0.7,0.3,0.7,0.5
	c0,0.4-0.3,0.6-0.7,0.6l0.8,1c0.1,0.1,0.1,0.1,0.2,0.1V3c-0.1,0-0.2,0-0.2,0c-0.1,0-0.2,0-0.2,0c0-0.1-0.1-0.1-0.1-0.2L21.1,2
	C21,1.9,21,1.8,20.9,1.8c0.1,0,0.2,0,0.3-0.1c0.2,0,0.4-0.2,0.4-0.5c0-0.4-0.3-0.5-0.5-0.5C21,0.8,20.9,0.8,20.8,0.8 M23.2,2.6V1.1
	c0-0.1,0-0.2,0-0.3c0,0-0.1,0-0.1-0.1l-0.2,0V0.6c0.2,0,0.4,0,0.6,0c0.3,0,0.6,0,0.8,0c0.2,0,0.3,0,0.4,0c0,0.1-0.1,0.3-0.1,0.5
	h-0.1V0.9c0,0,0-0.1,0-0.1c-0.2-0.1-0.4-0.1-0.7-0.1c-0.1,0-0.2,0-0.3,0v0.9c0.1,0,0.2,0,0.4,0c0.2,0,0.3,0,0.4,0c0,0,0,0,0-0.1
	l0-0.2h0.1c0,0.1,0,0.3,0,0.4c0,0.1,0,0.3,0,0.4h-0.1l0-0.2c0,0,0-0.1,0-0.1c0,0-0.2,0-0.4,0c-0.2,0-0.3,0-0.4,0v0.9
	c0.1,0,0.2,0,0.3,0c0.3,0,0.6,0,0.7,0c0,0,0.1-0.2,0.1-0.4h0.1c0,0.2-0.1,0.4-0.1,0.6c-0.1,0-0.4,0-0.7,0c-0.3,0-0.5,0-0.7,0
	c-0.1,0-0.2,0-0.4,0V2.9l0.1,0c0.1,0,0.1,0,0.1-0.1C23.2,2.8,23.2,2.7,23.2,2.6 M28.8,2.3l-0.4-1.1l-0.6,1.5c0,0.1-0.1,0.2-0.1,0.3
	h-0.2c0-0.1-0.1-0.2-0.1-0.3l-0.4-1.7c0-0.1-0.1-0.2-0.2-0.2l-0.1,0V0.6c0.1,0,0.3,0,0.4,0c0.1,0,0.3,0,0.4,0v0.1l-0.1,0
	c-0.1,0-0.2,0-0.1,0.2l0.3,1.5l0.4-1c0.1-0.3,0.2-0.5,0.3-0.8h0.1c0,0.1,0.1,0.3,0.1,0.4l0.5,1.5l0.4-1.6c0-0.1,0-0.1-0.2-0.1
	l-0.1,0V0.6c0.1,0,0.2,0,0.4,0c0.1,0,0.2,0,0.4,0v0.1l-0.1,0c-0.1,0-0.1,0-0.1,0.1l-0.5,1.8c0,0.1-0.1,0.2-0.1,0.3h-0.2
	C29,2.7,28.9,2.5,28.8,2.3 M31.4,2.1h0.9l-0.4-1L31.4,2.1z M32,0.6l0.8,1.9c0,0.1,0.1,0.2,0.1,0.2c0,0.1,0.1,0.1,0.1,0.1l0.1,0V3
	c-0.1,0-0.3,0-0.4,0c-0.1,0-0.3,0-0.4,0V2.9l0.2,0c0.1,0,0.1,0,0.1-0.1c0,0,0-0.1-0.1-0.2l-0.2-0.4h-1l-0.1,0.2
	c0,0.1-0.1,0.3-0.1,0.4c0,0.1,0.1,0.1,0.2,0.1l0.1,0V3c-0.2,0-0.3,0-0.4,0c-0.1,0-0.3,0-0.4,0V2.9l0.1,0c0.1,0,0.1-0.1,0.2-0.2
	l0.6-1.4c0.1-0.2,0.2-0.5,0.3-0.7H32z M34.1,2.6V1.1c0-0.1,0-0.2,0-0.3c0,0-0.1,0-0.1,0l-0.1,0V0.6c0.1,0,0.3,0,0.4,0
	c0.1,0,0.1,0,0.2,0l1.6,2l0-1.6c0-0.1,0-0.2,0-0.3c0,0-0.1,0-0.1,0l-0.1,0V0.6c0.1,0,0.3,0,0.4,0c0.1,0,0.3,0,0.4,0v0.1l-0.1,0
	c-0.1,0-0.1,0-0.1,0c0,0,0,0.1,0,0.3v1.9c0,0,0,0.1,0,0.1L35.9,3l-1.6-2l0,1.5c0,0.1,0,0.2,0,0.3c0,0,0.1,0,0.1,0.1l0.1,0V3
	c-0.1,0-0.3,0-0.4,0c-0.1,0-0.3,0-0.4,0V2.9l0.1,0c0.1,0,0.1,0,0.1-0.1C34.1,2.8,34.1,2.7,34.1,2.6 M37.9,2.1h0.9l-0.4-1L37.9,2.1z
	 M38.5,0.6l0.8,1.9c0,0.1,0.1,0.2,0.1,0.2c0,0.1,0.1,0.1,0.1,0.1l0.1,0V3c-0.1,0-0.3,0-0.4,0c-0.1,0-0.3,0-0.4,0V2.9l0.2,0
	c0.1,0,0.1,0,0.1-0.1c0,0,0-0.1-0.1-0.2l-0.2-0.4h-1l-0.1,0.2c0,0.1-0.1,0.3-0.1,0.4c0,0.1,0.1,0.1,0.2,0.1l0.1,0V3
	c-0.2,0-0.3,0-0.4,0c-0.1,0-0.3,0-0.4,0V2.9l0.1,0c0.1,0,0.1-0.1,0.2-0.2L38,1.3c0.1-0.2,0.2-0.5,0.3-0.7H38.5z M40.6,2.6V1.1
	c0-0.1,0-0.2,0-0.3c0,0-0.1,0-0.1,0l-0.1,0V0.6c0.1,0,0.3,0,0.4,0c0.1,0,0.1,0,0.2,0l1.6,2l0-1.6c0-0.1,0-0.2,0-0.3c0,0-0.1,0-0.1,0
	l-0.1,0V0.6c0.1,0,0.3,0,0.4,0c0.1,0,0.3,0,0.4,0v0.1l-0.1,0c-0.1,0-0.1,0-0.1,0c0,0,0,0.1,0,0.3v1.9c0,0,0,0.1,0,0.1L42.3,3l-1.6-2
	l0,1.5c0,0.1,0,0.2,0,0.3c0,0,0.1,0,0.1,0.1l0.1,0V3c-0.1,0-0.3,0-0.4,0c-0.1,0-0.3,0-0.4,0V2.9l0.1,0c0.1,0,0.1,0,0.1-0.1
	C40.6,2.8,40.6,2.7,40.6,2.6 M45.5,2.6V2.3c0-0.1,0-0.1-0.1-0.1l-0.3,0V2.1c0.1,0,0.3,0,0.4,0c0.1,0,0.3,0,0.4,0l0,0.1l-0.1,0
	c0,0,0,0,0,0.1v0.6C45.5,3,45.2,3,45,3c-0.8,0-1.4-0.4-1.4-1.2c0-0.7,0.6-1.2,1.4-1.2c0.4,0,0.7,0.1,0.8,0.1c0,0.2-0.1,0.3-0.1,0.5
	h-0.1V1.1c0-0.2-0.1-0.2-0.3-0.3c-0.1,0-0.3-0.1-0.5-0.1c-0.6,0-1,0.4-1,1c0,0.7,0.4,1.2,1.1,1.2c0.3,0,0.5-0.1,0.5-0.1
	C45.5,2.7,45.5,2.7,45.5,2.6 M47.4,2.1h0.9l-0.4-1L47.4,2.1z M48,0.6l0.8,1.9c0,0.1,0.1,0.2,0.1,0.2c0,0.1,0.1,0.1,0.1,0.1l0.1,0V3
	c-0.1,0-0.3,0-0.4,0c-0.1,0-0.3,0-0.4,0V2.9l0.2,0c0.1,0,0.1,0,0.1-0.1c0,0,0-0.1-0.1-0.2l-0.2-0.4h-1l-0.1,0.2
	c0,0.1-0.1,0.3-0.1,0.4c0,0.1,0.1,0.1,0.2,0.1l0.1,0V3c-0.2,0-0.3,0-0.4,0c-0.1,0-0.3,0-0.4,0V2.9l0.1,0c0.1,0,0.1-0.1,0.2-0.2
	l0.6-1.4c0.1-0.2,0.2-0.5,0.3-0.7H48z M52.2,0.7c-0.6,0-0.9,0.4-0.9,1c0,0.6,0.3,1.2,0.9,1.2c0.6,0,0.8-0.4,0.8-1.1
	C53.1,1.2,52.8,0.7,52.2,0.7 M52.2,3C51.5,3,51,2.6,51,1.8c0-0.7,0.5-1.2,1.3-1.2c0.7,0,1.2,0.4,1.2,1.2C53.5,2.5,52.9,3,52.2,3
	 M56.3,2.6V1.1c0-0.1,0-0.2,0-0.3h-0.5c-0.1,0-0.1,0-0.1,0.1l0,0.3h-0.1c0-0.2,0-0.4,0-0.5c0.2,0,0.5,0,0.7,0h0.5c0.2,0,0.5,0,0.7,0
	c0,0.2,0,0.4,0,0.5h-0.1l0-0.3c0-0.1,0-0.1-0.1-0.1h-0.5c0,0.1,0,0.2,0,0.3v1.4c0,0.1,0,0.2,0,0.3c0,0,0.1,0,0.1,0.1l0.2,0V3
	c-0.2,0-0.3,0-0.5,0c-0.2,0-0.3,0-0.5,0V2.9l0.2,0c0.1,0,0.1,0,0.1-0.1C56.3,2.8,56.3,2.7,56.3,2.6 M58.4,2.6V1.1c0-0.1,0-0.2,0-0.3
	c0,0-0.1,0-0.1-0.1l-0.2,0V0.6c0.2,0,0.4,0,0.6,0c0.3,0,0.6,0,0.8,0c0.2,0,0.3,0,0.4,0c0,0.1-0.1,0.3-0.1,0.5h-0.1V0.9
	c0,0,0-0.1,0-0.1c-0.2-0.1-0.4-0.1-0.7-0.1c-0.1,0-0.2,0-0.3,0v0.9c0.1,0,0.2,0,0.4,0c0.2,0,0.3,0,0.4,0c0,0,0,0,0-0.1l0-0.2h0.1
	c0,0.1,0,0.3,0,0.4c0,0.1,0,0.3,0,0.4h-0.1l0-0.2c0,0,0-0.1,0-0.1c0,0-0.2,0-0.4,0c-0.2,0-0.3,0-0.4,0v0.9c0.1,0,0.2,0,0.3,0
	c0.3,0,0.6,0,0.7,0c0.1,0,0.1-0.2,0.1-0.4h0.1c0,0.2-0.1,0.4-0.1,0.6c-0.1,0-0.4,0-0.7,0c-0.3,0-0.5,0-0.7,0c-0.1,0-0.2,0-0.4,0V2.9
	l0.1,0c0.1,0,0.1,0,0.1-0.1C58.4,2.8,58.4,2.7,58.4,2.6 M62.3,2.3V1.1c0-0.1,0-0.2,0-0.3c0,0-0.1,0-0.1-0.1l-0.2,0V0.6
	c0.2,0,0.3,0,0.5,0c0.2,0,0.3,0,0.5,0v0.1l-0.2,0c-0.1,0-0.1,0-0.1,0.1c0,0,0,0.1,0,0.3v1.2c0,0.5,0.2,0.6,0.7,0.6
	c0.4,0,0.7-0.1,0.7-0.7V1.1c0-0.1,0-0.2,0-0.3c0,0-0.1,0-0.1-0.1l-0.1,0V0.6c0.1,0,0.3,0,0.4,0c0.1,0,0.3,0,0.4,0v0.1l-0.1,0
	c-0.1,0-0.1,0-0.1,0.1c0,0,0,0.1,0,0.3v1c0,0.7-0.3,1-1,1C62.6,3,62.3,2.9,62.3,2.3 M65.8,0.8v1.8c0,0.1,0,0.2,0,0.3
	c0,0,0.1,0,0.1,0.1l0.2,0V3c-0.2,0-0.3,0-0.5,0c-0.2,0-0.3,0-0.5,0V2.9l0.2,0c0.1,0,0.1,0,0.1-0.1c0,0,0-0.1,0-0.3V1.1
	c0-0.1,0-0.2,0-0.2c0,0-0.1-0.1-0.1-0.1l-0.2,0V0.6c0.2,0,0.4,0,0.6,0c0.2,0,0.4,0,0.6,0c0.3,0,0.7,0.1,0.7,0.5
	c0,0.4-0.4,0.7-0.8,0.7c-0.1,0-0.1,0-0.2,0l0-0.1c0.1,0,0.1,0,0.2,0c0.3,0,0.5-0.2,0.5-0.5c0-0.4-0.2-0.5-0.5-0.5
	C66,0.8,65.9,0.8,65.8,0.8 M68.9,0.7c-0.6,0-0.9,0.4-0.9,1c0,0.6,0.3,1.2,0.9,1.2c0.6,0,0.8-0.4,0.8-1.1C69.8,1.2,69.5,0.7,68.9,0.7
	 M68.9,3c-0.7,0-1.2-0.5-1.2-1.2c0-0.7,0.5-1.2,1.3-1.2c0.7,0,1.2,0.4,1.2,1.2C70.2,2.5,69.6,3,68.9,3 M71.5,1.9v0.7
	c0,0.1,0,0.2,0,0.3c0,0,0.1,0,0.1,0.1l0.2,0V3c-0.2,0-0.3,0-0.5,0c-0.2,0-0.3,0-0.5,0V2.9l0.2,0c0.1,0,0.1,0,0.1-0.1
	c0,0,0-0.1,0-0.3V1.1c0-0.1,0-0.2,0-0.3c0,0-0.1,0-0.1,0l-0.2,0V0.6c0.2,0,0.3,0,0.5,0c0.2,0,0.3,0,0.5,0v0.1l-0.2,0
	c-0.1,0-0.1,0-0.1,0c0,0,0,0.1,0,0.3v0.7l0.9-0.9c0.1,0,0.1-0.1,0.1-0.1V0.6c0.1,0,0.2,0,0.3,0c0.1,0,0.2,0,0.3,0v0.1l-0.1,0
	c-0.1,0-0.2,0.1-0.3,0.1l-0.9,0.8l1.1,1C73,2.8,73,2.9,73.1,2.9l0.1,0V3c-0.1,0-0.1,0-0.2,0c-0.1,0-0.2,0-0.3,0L71.5,1.9L71.5,1.9z
	 M75,0.7c-0.6,0-0.9,0.4-0.9,1c0,0.6,0.3,1.2,0.9,1.2c0.6,0,0.8-0.4,0.8-1.1C75.9,1.2,75.6,0.7,75,0.7 M75,3c-0.7,0-1.2-0.5-1.2-1.2
	c0-0.7,0.5-1.2,1.3-1.2c0.7,0,1.2,0.4,1.2,1.2C76.3,2.5,75.7,3,75,3 M79.5,0.7c-0.6,0-0.9,0.4-0.9,1c0,0.6,0.3,1.2,0.9,1.2
	c0.6,0,0.8-0.4,0.8-1.1C80.4,1.2,80.1,0.7,79.5,0.7 M79.5,3c-0.7,0-1.2-0.5-1.2-1.2c0-0.7,0.5-1.2,1.3-1.2c0.7,0,1.2,0.4,1.2,1.2
	C80.8,2.5,80.2,3,79.5,3 M83.6,2.6V1.1c0-0.1,0-0.2,0-0.3h-0.5c-0.1,0-0.1,0-0.1,0.1l0,0.3h-0.1c0-0.2,0-0.4,0-0.5
	c0.2,0,0.5,0,0.7,0H84c0.2,0,0.5,0,0.7,0c0,0.2,0,0.4,0,0.5h-0.1l0-0.3c0-0.1,0-0.1-0.1-0.1h-0.5c0,0.1,0,0.2,0,0.3v1.4
	c0,0.1,0,0.2,0,0.3c0,0,0.1,0,0.1,0.1l0.2,0V3c-0.2,0-0.3,0-0.5,0c-0.2,0-0.3,0-0.5,0V2.9l0.2,0c0.1,0,0.1,0,0.1-0.1
	C83.6,2.8,83.6,2.7,83.6,2.6 M85.7,2.6V1.1c0-0.1,0-0.2,0-0.3c0,0-0.1,0-0.1-0.1l-0.2,0V0.6c0.2,0,0.4,0,0.6,0c0.3,0,0.6,0,0.8,0
	c0.2,0,0.3,0,0.4,0c0,0.1-0.1,0.3-0.1,0.5H87V0.9c0,0,0-0.1,0-0.1c-0.2-0.1-0.4-0.1-0.7-0.1c-0.1,0-0.2,0-0.3,0v0.9
	c0.1,0,0.2,0,0.4,0c0.2,0,0.3,0,0.4,0c0,0,0,0,0-0.1l0-0.2h0.1c0,0.1,0,0.3,0,0.4c0,0.1,0,0.3,0,0.4h-0.1l0-0.2c0,0,0-0.1,0-0.1
	c0,0-0.2,0-0.4,0c-0.2,0-0.3,0-0.4,0v0.9c0.1,0,0.2,0,0.3,0c0.3,0,0.6,0,0.7,0c0.1,0,0.1-0.2,0.1-0.4h0.1c0,0.2-0.1,0.4-0.1,0.6
	c-0.1,0-0.4,0-0.7,0c-0.3,0-0.5,0-0.7,0c-0.1,0-0.2,0-0.4,0V2.9l0.1,0c0.1,0,0.1,0,0.1-0.1C85.7,2.8,85.7,2.7,85.7,2.6 M89.9,1.1
	v1.5c0,0.1,0,0.2,0,0.3c0,0,0.1,0,0.1,0.1l0.2,0V3c-0.2,0-0.3,0-0.5,0c-0.2,0-0.3,0-0.5,0V2.9l0.2,0c0.1,0,0.1,0,0.1-0.1
	c0,0,0-0.1,0-0.3V1.1c0-0.1,0-0.2,0-0.3c0,0-0.1,0-0.1,0l-0.2,0V0.6c0.2,0,0.3,0,0.5,0c0.2,0,0.3,0,0.5,0v0.1l-0.2,0
	c-0.1,0-0.1,0-0.1,0C90,0.8,89.9,0.9,89.9,1.1 M91.6,1.9v0.7c0,0.1,0,0.2,0,0.3c0,0,0.1,0,0.1,0.1l0.2,0V3c-0.2,0-0.3,0-0.5,0
	c-0.2,0-0.3,0-0.5,0V2.9l0.2,0c0.1,0,0.1,0,0.1-0.1c0,0,0-0.1,0-0.3V1.1c0-0.1,0-0.2,0-0.3c0,0-0.1,0-0.1,0l-0.2,0V0.6
	c0.2,0,0.3,0,0.5,0c0.2,0,0.3,0,0.5,0v0.1l-0.2,0c-0.1,0-0.1,0-0.1,0c0,0,0,0.1,0,0.3v0.7l0.9-0.9c0,0,0.1-0.1,0.1-0.1V0.6
	c0.1,0,0.2,0,0.3,0c0.1,0,0.2,0,0.3,0v0.1l-0.1,0c-0.1,0-0.2,0.1-0.3,0.1l-0.9,0.8l1.1,1c0.1,0.1,0.1,0.1,0.2,0.1l0.1,0V3
	c-0.1,0-0.1,0-0.2,0c-0.1,0-0.2,0-0.3,0L91.6,1.9L91.6,1.9z M94.6,2.1h0.9l-0.4-1L94.6,2.1z M95.2,0.6L96,2.5c0,0.1,0.1,0.2,0.1,0.2
	c0,0.1,0.1,0.1,0.1,0.1l0.1,0V3c-0.1,0-0.3,0-0.4,0c-0.1,0-0.3,0-0.4,0V2.9l0.2,0c0.1,0,0.1,0,0.1-0.1c0,0,0-0.1-0.1-0.2l-0.2-0.4
	h-1l-0.1,0.2c0,0.1-0.1,0.3-0.1,0.4c0,0.1,0.1,0.1,0.2,0.1l0.1,0V3c-0.2,0-0.3,0-0.4,0c-0.1,0-0.3,0-0.4,0V2.9l0.1,0
	c0.1,0,0.1-0.1,0.2-0.2l0.6-1.4c0.1-0.2,0.2-0.5,0.3-0.7H95.2z M98.8,2.1h0.9l-0.4-1L98.8,2.1z M99.4,0.6l0.8,1.9
	c0,0.1,0.1,0.2,0.1,0.2c0,0.1,0.1,0.1,0.1,0.1l0.1,0V3c-0.1,0-0.3,0-0.4,0c-0.1,0-0.3,0-0.4,0V2.9l0.2,0c0.1,0,0.1,0,0.1-0.1
	c0,0,0-0.1-0.1-0.2l-0.2-0.4h-1l-0.1,0.2c0,0.1-0.1,0.3-0.1,0.4c0,0.1,0.1,0.1,0.2,0.1l0.1,0V3c-0.2,0-0.3,0-0.4,0
	c-0.1,0-0.3,0-0.4,0V2.9l0.1,0c0.1,0,0.1-0.1,0.2-0.2L99,1.3c0.1-0.2,0.2-0.5,0.3-0.7H99.4z M105.1,1.1v1.5c0,0.1,0,0.2,0,0.3
	c0,0,0.1,0,0.1,0.1l0.2,0V3c-0.2,0-0.3,0-0.5,0c-0.2,0-0.3,0-0.5,0V2.9l0.1,0c0.1,0,0.1,0,0.1-0.1c0,0,0-0.1,0-0.3V1
	c-0.1,0.1-0.1,0.2-0.1,0.3L104,2.6c-0.1,0.1-0.1,0.3-0.2,0.4h-0.1l-0.9-2l0,1.5c0,0.1,0,0.2,0,0.3c0,0,0.1,0,0.1,0.1l0.1,0V3
	c-0.1,0-0.3,0-0.4,0c-0.1,0-0.3,0-0.4,0V2.9l0.1,0c0.1,0,0.1,0,0.1-0.1c0,0,0-0.1,0-0.3V1.1c0-0.1,0-0.2,0-0.3c0,0-0.1,0-0.1,0
	l-0.1,0V0.6c0.1,0,0.2,0,0.3,0c0.1,0,0.2,0,0.3,0l0.9,1.9l0.9-1.9c0.1,0,0.2,0,0.3,0c0.1,0,0.2,0,0.3,0v0.1l-0.1,0
	c-0.1,0-0.1,0-0.1,0C105.1,0.8,105.1,0.9,105.1,1.1 M106.8,2.1h0.9l-0.4-1L106.8,2.1z M107.4,0.6l0.8,1.9c0,0.1,0.1,0.2,0.1,0.2
	c0,0.1,0.1,0.1,0.1,0.1l0.1,0V3c-0.1,0-0.3,0-0.4,0c-0.1,0-0.3,0-0.4,0V2.9l0.2,0c0.1,0,0.1,0,0.1-0.1c0,0,0-0.1-0.1-0.2l-0.2-0.4
	h-1l-0.1,0.2c0,0.1-0.1,0.3-0.1,0.4c0,0.1,0.1,0.1,0.2,0.1l0.1,0V3c-0.2,0-0.3,0-0.4,0c-0.1,0-0.3,0-0.4,0V2.9l0.1,0
	c0.1,0,0.1-0.1,0.2-0.2l0.6-1.4c0.1-0.2,0.2-0.5,0.3-0.7H107.4z M109.5,2.3V1.1c0-0.1,0-0.2,0-0.3c0,0-0.1,0-0.1-0.1l-0.2,0V0.6
	c0.2,0,0.3,0,0.5,0c0.2,0,0.3,0,0.5,0v0.1l-0.2,0c-0.1,0-0.1,0-0.1,0.1c0,0,0,0.1,0,0.3v1.2c0,0.5,0.2,0.6,0.7,0.6
	c0.4,0,0.7-0.1,0.7-0.7V1.1c0-0.1,0-0.2,0-0.3c0,0-0.1,0-0.1-0.1l-0.1,0V0.6c0.1,0,0.3,0,0.4,0c0.1,0,0.3,0,0.4,0v0.1l-0.1,0
	c-0.1,0-0.1,0-0.1,0.1c0,0,0,0.1,0,0.3v1c0,0.7-0.3,1-1,1C109.8,3,109.5,2.9,109.5,2.3 M62.6,0h1.3v0.3h-1.3V0z M108.4,7.7l-1.2,3
	h2.4L108.4,7.7z M109.9,11.4h-3l-0.5,1.3c-0.2,0.5,0.1,0.7,0.3,0.7l0.6,0v0.4c-0.6,0-1,0-1.3,0c-0.3,0-0.8,0-1.3,0v-0.4l0.4,0
	c0.3,0,0.5-0.4,0.7-0.7l2.2-5.2l0.3-0.8l0.2-0.5l0.2-0.5h0.8l3.1,7.2c0.1,0.3,0.3,0.5,0.7,0.5l0.3,0v0.4c-0.8,0-1.4,0-1.8,0
	s-1.1,0-1.8,0v-0.4l0.6,0c0.2,0,0.3-0.3,0.2-0.7L109.9,11.4z M51.5,7.3l1.9,4.6L55,7.7c0.2-0.5,0.4-0.9,0.4-1.2
	c0-0.2-0.2-0.3-0.4-0.3l-0.5,0V5.8c0.6,0,1,0,1.4,0c0.3,0,0.8,0,1.4,0v0.4l-0.4,0c-0.3,0-0.4,0.2-0.6,0.6l-2.5,5.9
	c-0.2,0.4-0.3,0.8-0.5,1.2h-0.9l-2.8-6.8c-0.1-0.3-0.3-0.8-0.7-0.9l-0.5,0V5.8c0.8,0,1.4,0,1.9,0s1.1,0,1.9,0v0.4l-0.6,0
	c-0.2,0-0.3,0.1-0.3,0.2C51.2,6.7,51.4,7.1,51.5,7.3 M61.1,7.4v4.8c0,0.5,0,0.8,0.1,1c0,0.1,0.2,0.1,0.5,0.2l0.4,0v0.5
	c-0.5,0-1.1,0-1.8,0c-0.7,0-1.4,0-1.9,0v-0.5l0.4,0c0.3,0,0.4-0.1,0.5-0.2c0.1-0.1,0.1-0.5,0.1-1V7.4c0-0.5,0-0.8-0.1-1
	c0-0.1-0.2-0.1-0.5-0.2l-0.4,0V5.8c0.5,0,1.1,0,1.9,0c0.7,0,1.4,0,1.8,0v0.5l-0.4,0c-0.3,0-0.4,0.1-0.5,0.2
	C61.1,6.6,61.1,6.9,61.1,7.4 M71,12.8l-0.3,0.6c-0.8,0.5-1.8,0.7-2.7,0.7c-2.7,0-4.7-1.5-4.7-4.4c0-2.7,2.2-4.1,4.7-4.1
	c1,0,1.8,0.1,2.9,0.6L71,6.3c-0.1,0.4-0.2,1.3-0.3,1.8h-0.5l-0.1-1c-0.6-0.6-1.3-0.8-2.1-0.8c-2,0-3,1.4-3,3.3
	c0,2.2,1.3,3.7,3.5,3.7c0.7,0,1.7-0.2,2.3-0.6L71,12.8z M76.7,6.5v5.7c0,0.5,0,0.8,0.1,1c0,0.1,0.2,0.1,0.5,0.2l0.4,0v0.5
	c-0.5,0-1.1,0-1.8,0c-0.7,0-1.4,0-1.9,0v-0.5l0.4,0c0.3,0,0.4-0.1,0.5-0.2c0.1-0.1,0.1-0.5,0.1-1V6.5h-1.4c-0.3,0-0.7,0-0.7,0.1
	c0,0.1-0.1,0.2-0.1,0.3l-0.1,0.8h-0.5c0-0.8-0.1-1.3-0.2-1.9l0.1-0.1c1.2,0,2.5,0,3.7,0c1.2,0,2.4,0,3.7,0l0.1,0.1
	c-0.1,0.6-0.1,1.1-0.2,1.9H79l-0.1-0.8c0-0.1-0.1-0.2-0.1-0.3c-0.1-0.1-0.4-0.1-0.7-0.1H76.7z M85,6.3c-2.2,0-2.7,1.7-2.7,3.4
	c0,2,0.8,3.7,2.5,3.7c2.2,0,2.7-1.6,2.7-3.4C87.5,8,86.7,6.3,85,6.3 M85,5.6c2.7,0,4.3,1.4,4.3,4.2c0,2.8-1.8,4.3-4.5,4.3
	c-2.7,0-4.3-1.4-4.3-4.2C80.5,7.1,82.3,5.6,85,5.6 M91.4,12.2V7.4c0-0.5,0-0.8-0.1-1c-0.1-0.1-0.2-0.2-0.5-0.2l-0.4,0V5.8
	c0.8,0,1.4,0,2,0c0.8,0,1.6,0,2.4,0c1.2,0,2.3,0.3,2.3,1.8c0,1-0.8,1.7-1.8,2.1l2.1,3.3c0.1,0.1,0.2,0.3,0.3,0.4
	c0.1,0.1,0.3,0.1,0.5,0.2v0.5c-0.4,0-0.8,0-1.2,0c-0.4,0-0.7,0-1.1,0l-2.7-4.1l0.1-0.2c1.1,0.1,1.9-0.6,1.9-1.7c0-1-0.7-1.5-1.6-1.5
	c-0.2,0-0.6,0-0.8,0.1v5.8c0,0.5,0,0.8,0.1,1c0,0.1,0.2,0.1,0.5,0.2l0.4,0v0.5c-0.5,0-1.1,0-1.8,0c-0.7,0-1.4,0-1.9,0v-0.5l0.4,0
	c0.3,0,0.4-0.1,0.5-0.2C91.4,13.1,91.4,12.7,91.4,12.2 M102.3,7.4v4.8c0,0.5,0,0.8,0.1,1c0,0.1,0.2,0.1,0.5,0.2l0.4,0v0.5
	c-0.5,0-1.1,0-1.8,0c-0.7,0-1.4,0-1.9,0v-0.5l0.4,0c0.3,0,0.4-0.1,0.5-0.2c0.1-0.1,0.1-0.5,0.1-1V7.4c0-0.5,0-0.8-0.1-1
	c0-0.1-0.2-0.1-0.5-0.2l-0.4,0V5.8c0.5,0,1.1,0,1.9,0c0.7,0,1.4,0,1.8,0v0.5l-0.4,0c-0.3,0-0.4,0.1-0.5,0.2
	C102.3,6.6,102.3,6.9,102.3,7.4 M111,18.5v-1.4c0-0.1,0-0.2,0-0.3c0,0,0-0.1-0.1-0.1l-0.1,0v-0.1c0.1,0,0.3,0,0.4,0
	c0.1,0,0.2,0,0.3,0c0.1,0.1,0.2,0.3,0.3,0.4l1,1.2v-1.2c0-0.1,0-0.2,0-0.3c0,0,0-0.1-0.1-0.1l-0.1,0v-0.1c0.1,0,0.3,0,0.4,0
	s0.3,0,0.4,0v0.1l-0.1,0c-0.1,0-0.1,0-0.1,0.1c0,0,0,0.1,0,0.3v1.5c0,0.1,0,0.2,0,0.3l-0.3,0c-0.1-0.2-0.3-0.3-0.4-0.5l-1.1-1.3
	l0,1.3c0,0.1,0,0.2,0,0.3c0,0,0.1,0.1,0.1,0.1l0.1,0v0.1c-0.1,0-0.3,0-0.4,0s-0.3,0-0.4,0v-0.1l0.1,0c0.1,0,0.1,0,0.1-0.1
	C111,18.7,111,18.6,111,18.5 M49.5,18.3v-1.2c0-0.1,0-0.2,0-0.3c0,0-0.1-0.1-0.1-0.1l-0.1,0v-0.1c0.1,0,0.3,0,0.5,0
	c0.2,0,0.4,0,0.5,0v0.1l-0.1,0c-0.1,0-0.1,0-0.1,0.1c0,0,0,0.1,0,0.3v0.8c0,0.5,0,0.8,0.6,0.8c0.6,0,0.6-0.3,0.6-0.8v-0.8
	c0-0.1,0-0.2,0-0.3c0,0,0-0.1-0.1-0.1l-0.1,0v-0.1c0.1,0,0.3,0,0.4,0s0.3,0,0.4,0v0.1l-0.1,0c-0.1,0-0.1,0-0.1,0.1c0,0,0,0.1,0,0.3
	v1c0,0.6-0.3,0.9-0.9,0.9C49.8,19,49.5,18.7,49.5,18.3 M52.6,18.5v-1.4c0-0.1,0-0.2,0-0.3c0,0-0.1-0.1-0.1-0.1l-0.1,0v-0.1
	c0.1,0,0.3,0,0.4,0c0.1,0,0.2,0,0.3,0c0.1,0.1,0.2,0.3,0.3,0.4l1.1,1.2v-1.2c0-0.1,0-0.2,0-0.3c0,0,0-0.1-0.1-0.1l-0.1,0v-0.1
	c0.1,0,0.3,0,0.4,0s0.3,0,0.4,0v0.1l-0.1,0c-0.1,0-0.1,0-0.1,0.1c0,0,0,0.1,0,0.3v1.5c0,0.1,0,0.2,0,0.3l-0.3,0
	c-0.1-0.2-0.3-0.3-0.4-0.5l-1.1-1.3l0,1.3c0,0.1,0,0.2,0,0.3c0,0,0.1,0.1,0.1,0.1l0.1,0v0.1c-0.1,0-0.3,0-0.4,0c-0.1,0-0.3,0-0.4,0
	v-0.1l0.1,0c0.1,0,0.1,0,0.1-0.1C52.6,18.7,52.6,18.6,52.6,18.5 M56.5,17.1v1.4c0,0.1,0,0.2,0,0.3c0,0,0,0,0.1,0l0.1,0v0.1
	c-0.1,0-0.3,0-0.5,0c-0.2,0-0.4,0-0.5,0v-0.1l0.1,0c0.1,0,0.1,0,0.1,0c0,0,0-0.1,0-0.3v-1.4c0-0.1,0-0.2,0-0.3c0,0-0.1,0-0.1,0
	l-0.1,0v-0.1c0.1,0,0.3,0,0.5,0c0.2,0,0.4,0,0.5,0v0.1l-0.1,0c-0.1,0-0.1,0-0.1,0C56.5,16.9,56.5,17,56.5,17.1 M58.4,17.1l0.5,1.3
	l0.5-1.2c0.1-0.1,0.1-0.3,0.1-0.3c0-0.1-0.1-0.1-0.1-0.1l-0.2,0v-0.1c0.2,0,0.3,0,0.4,0c0.1,0,0.2,0,0.4,0v0.1l-0.1,0
	c-0.1,0-0.1,0.1-0.2,0.2L59,18.6c0,0.1-0.1,0.2-0.1,0.3h-0.3L57.8,17c0-0.1-0.1-0.2-0.2-0.2l-0.1,0v-0.1c0.2,0,0.4,0,0.5,0
	c0.1,0,0.3,0,0.6,0v0.1l-0.2,0c0,0-0.1,0-0.1,0.1C58.3,16.9,58.3,17,58.4,17.1 M61.4,16.8v0.8c0.1,0,0.2,0,0.2,0h0.2
	c0.1,0,0.2,0,0.2-0.1l0-0.2h0.1c0,0.1,0,0.2,0,0.4s0,0.2,0,0.4h-0.1l0-0.2c0-0.1-0.1-0.1-0.2-0.1h-0.2c-0.1,0-0.1,0-0.2,0v0.9
	c0.1,0,0.3,0,0.4,0c0.2,0,0.4,0,0.4-0.1l0.1-0.3h0.1l0,0.5c-0.2,0-0.6,0-0.8,0c-0.1,0-0.3,0-0.4,0c-0.1,0-0.3,0-0.4,0v-0.1l0.1-0.1
	c0.1,0,0.1-0.1,0.1-0.2v-1.5c0-0.1,0-0.2,0-0.3c0,0-0.1,0-0.1-0.1l-0.1,0v-0.1c0.2,0,0.4,0,0.5,0c0.3,0,0.5,0,0.7,0
	c0.2,0,0.3,0,0.5,0l0,0.5h-0.1l0-0.3c0-0.1-0.2-0.1-0.4-0.1C61.7,16.8,61.6,16.8,61.4,16.8 M63.5,18.5v-1.4c0-0.1,0-0.2,0-0.3
	c0,0-0.1-0.1-0.1-0.1l-0.1,0v-0.1c0.2,0,0.4,0,0.6,0c0.2,0,0.5,0,0.7,0c0.3,0,0.7,0.1,0.7,0.5c0,0.3-0.2,0.5-0.5,0.6l0.6,0.9
	c0,0,0.1,0.1,0.1,0.1c0,0,0.1,0,0.1,0v0.1c-0.1,0-0.2,0-0.3,0c-0.1,0-0.2,0-0.3,0l-0.8-1.2l0-0.1c0.3,0,0.5-0.2,0.5-0.5
	c0-0.3-0.2-0.4-0.5-0.4c-0.1,0-0.2,0-0.2,0v1.6c0,0.1,0,0.2,0,0.3c0,0,0.1,0,0.1,0l0.1,0v0.1c-0.1,0-0.3,0-0.5,0c-0.2,0-0.4,0-0.5,0
	v-0.1l0.1,0c0.1,0,0.1,0,0.1,0C63.5,18.7,63.5,18.6,63.5,18.5 M66.3,18.3h0.1l0,0.3c0.1,0.2,0.4,0.3,0.5,0.3c0.3,0,0.5-0.2,0.5-0.4
	c0-0.1-0.1-0.3-0.3-0.3l-0.5-0.1c-0.3-0.1-0.5-0.3-0.5-0.6c0-0.5,0.4-0.7,0.9-0.7c0.2,0,0.4,0,0.6,0.1c0,0.1,0,0.3,0,0.5h-0.1l0-0.3
	c-0.1-0.1-0.3-0.2-0.4-0.2c-0.3,0-0.5,0.2-0.5,0.4c0,0.2,0.1,0.3,0.4,0.3l0.4,0.1c0.3,0.1,0.5,0.3,0.5,0.6c0,0.6-0.5,0.8-1,0.8
	c-0.2,0-0.5-0.1-0.7-0.2C66.3,18.6,66.3,18.4,66.3,18.3 M69.5,17.1v1.4c0,0.1,0,0.2,0,0.3c0,0,0.1,0,0.1,0l0.1,0v0.1
	c-0.1,0-0.3,0-0.5,0c-0.2,0-0.4,0-0.5,0v-0.1l0.1,0c0.1,0,0.1,0,0.1,0c0,0,0-0.1,0-0.3v-1.4c0-0.1,0-0.2,0-0.3c0,0-0.1,0-0.1,0
	l-0.1,0v-0.1c0.1,0,0.3,0,0.5,0c0.2,0,0.4,0,0.5,0v0.1l-0.1,0c-0.1,0-0.1,0-0.1,0C69.5,16.9,69.5,17,69.5,17.1 M71.8,16.8v1.6
	c0,0.1,0,0.2,0,0.3c0,0,0.1,0,0.1,0l0.1,0v0.1c-0.1,0-0.3,0-0.5,0c-0.2,0-0.4,0-0.5,0v-0.1l0.1,0c0.1,0,0.1,0,0.1,0c0,0,0-0.1,0-0.3
	v-1.6H71c-0.1,0-0.2,0-0.2,0c0,0,0,0,0,0.1l0,0.2h-0.1c0-0.2,0-0.4,0-0.5c0.4,0,0.7,0,1.1,0c0.3,0,0.7,0,1,0c0,0.2,0,0.3,0,0.6h-0.1
	l0-0.2c0,0,0-0.1,0-0.1c0,0-0.1,0-0.2,0H71.8z M74.6,17.7l0.6-1.1h0.3v0.1l-0.6,0.9c-0.1,0.1-0.1,0.2-0.2,0.3v0.5c0,0.1,0,0.2,0,0.3
	c0,0,0.1,0,0.1,0l0.1,0v0.1c-0.1,0-0.3,0-0.5,0c-0.2,0-0.4,0-0.5,0v-0.1l0.1,0c0.1,0,0.1,0,0.1,0c0,0,0-0.1,0-0.3V18
	c-0.1-0.1-0.1-0.2-0.1-0.3l-0.3-0.5c0-0.1-0.1-0.2-0.2-0.2c-0.1-0.1-0.1-0.1-0.3-0.1v-0.1l0.5-0.1c0.2,0.1,0.3,0.3,0.4,0.5
	L74.6,17.7z M78.8,16.8c-0.6,0-0.8,0.5-0.8,1c0,0.6,0.2,1,0.7,1c0.6,0,0.8-0.5,0.8-1C79.5,17.3,79.2,16.8,78.8,16.8 M78.8,16.6
	c0.8,0,1.2,0.4,1.2,1.2c0,0.8-0.5,1.2-1.3,1.2c-0.8,0-1.2-0.4-1.2-1.2C77.5,17,78,16.6,78.8,16.6 M81.5,16.8v0.8c0.1,0,0.2,0,0.2,0
	h0.2c0.1,0,0.2,0,0.2-0.1l0-0.2h0.1c0,0.1,0,0.2,0,0.3s0,0.2,0,0.4h-0.1l0-0.2c0-0.1-0.1-0.1-0.2-0.1h-0.2c-0.1,0-0.1,0-0.2,0v0.6
	c0,0.1,0,0.2,0,0.3c0,0,0.1,0,0.1,0l0.2,0v0.1c-0.2,0-0.4,0-0.6,0c-0.2,0-0.4,0-0.5,0v-0.1l0.1,0c0.1,0,0.1,0,0.1,0c0,0,0-0.1,0-0.3
	v-1.4c0-0.1,0-0.2,0-0.3c0,0-0.1,0-0.1-0.1l-0.1,0v-0.1c0.2,0,0.4,0,0.5,0c0.3,0,0.5,0,0.7,0c0.2,0,0.3,0,0.5,0l0,0.5h-0.1l0-0.3
	c0-0.1-0.2-0.1-0.4-0.1C81.8,16.8,81.6,16.8,81.5,16.8 M85.5,18.2L86,17l0.2-0.4h0.2c0.1,0.2,0.1,0.3,0.2,0.5l0.5,1.1l0.3-1.3
	c0,0,0-0.1,0-0.1c0,0-0.1-0.1-0.1-0.1l-0.2,0v-0.1c0.2,0,0.3,0,0.4,0c0.1,0,0.2,0,0.4,0v0.1l-0.1,0c-0.1,0-0.1,0.1-0.1,0.2L87,18.5
	c0,0.2-0.1,0.3-0.1,0.5h-0.2c0-0.1-0.1-0.2-0.1-0.4l-0.5-1.3l-0.5,1.2c-0.1,0.1-0.1,0.3-0.2,0.4h-0.2l-0.5-2c0-0.1-0.1-0.1-0.1-0.1
	l-0.1,0v-0.1c0.2,0,0.4,0,0.5,0c0.1,0,0.3,0,0.5,0v0.1l-0.1,0c0,0-0.1,0-0.1,0.1c0,0,0,0.1,0,0.1L85.5,18.2L85.5,18.2z M89.2,16.8
	v0.8c0.1,0,0.2,0,0.2,0h0.2c0.1,0,0.2,0,0.2-0.1l0-0.2H90c0,0.1,0,0.2,0,0.4s0,0.2,0,0.4h-0.1l0-0.2c0-0.1-0.1-0.1-0.2-0.1h-0.2
	c-0.1,0-0.1,0-0.2,0v0.9c0.1,0,0.3,0,0.4,0c0.2,0,0.4,0,0.4-0.1l0.1-0.3h0.1l0,0.5c-0.2,0-0.6,0-0.8,0c-0.1,0-0.3,0-0.4,0
	c-0.1,0-0.3,0-0.4,0v-0.1l0.1-0.1c0.1,0,0.1-0.1,0.1-0.2v-1.5c0-0.1,0-0.2,0-0.3c0,0-0.1,0-0.1-0.1l-0.1,0v-0.1c0.2,0,0.4,0,0.5,0
	c0.3,0,0.5,0,0.7,0c0.2,0,0.3,0,0.5,0l0,0.5H90l0-0.3c0-0.1-0.2-0.1-0.4-0.1C89.4,16.8,89.3,16.8,89.2,16.8 M91.7,17.1v1.6
	c0.1,0,0.3,0,0.4,0c0.2,0,0.4,0,0.4-0.1l0.1-0.3h0.1l0,0.6c-0.2,0-0.6,0-0.8,0c-0.1,0-0.3,0-0.4,0c-0.1,0-0.3,0-0.4,0v-0.1l0.1-0.1
	c0.1,0,0.1-0.1,0.1-0.2v-1.5c0-0.1,0-0.2,0-0.3c0,0,0,0-0.1,0l-0.1,0v-0.1c0.1,0,0.3,0,0.5,0c0.2,0,0.4,0,0.5,0v0.1l-0.1,0
	c-0.1,0-0.1,0-0.1,0C91.7,16.9,91.7,17,91.7,17.1 M94.3,17.1v1.6c0.1,0,0.3,0,0.4,0c0.2,0,0.4,0,0.4-0.1l0.1-0.3h0.1l0,0.6
	c-0.2,0-0.6,0-0.8,0c-0.1,0-0.3,0-0.4,0c-0.1,0-0.3,0-0.4,0v-0.1l0.1-0.1c0.1,0,0.1-0.1,0.1-0.2v-1.5c0-0.1,0-0.2,0-0.3
	c0,0,0,0-0.1,0l-0.1,0v-0.1c0.1,0,0.3,0,0.5,0c0.2,0,0.4,0,0.5,0v0.1l-0.1,0c-0.1,0-0.1,0-0.1,0C94.3,16.9,94.3,17,94.3,17.1
	 M96.9,17.1v1.4c0,0.1,0,0.2,0,0.3c0,0,0.1,0,0.1,0l0.1,0v0.1c-0.1,0-0.3,0-0.5,0c-0.2,0-0.4,0-0.5,0v-0.1l0.1,0c0.1,0,0.1,0,0.1,0
	c0,0,0-0.1,0-0.3v-1.4c0-0.1,0-0.2,0-0.3c0,0-0.1,0-0.1,0l-0.1,0v-0.1c0.1,0,0.3,0,0.5,0c0.2,0,0.4,0,0.5,0v0.1l-0.1,0
	c-0.1,0-0.1,0-0.1,0C96.9,16.9,96.9,17,96.9,17.1 M98.2,18.5v-1.4c0-0.1,0-0.2,0-0.3c0,0-0.1-0.1-0.1-0.1l-0.1,0v-0.1
	c0.1,0,0.3,0,0.4,0c0.1,0,0.2,0,0.3,0c0.1,0.1,0.2,0.3,0.3,0.4l1,1.2v-1.2c0-0.1,0-0.2,0-0.3c0,0-0.1-0.1-0.1-0.1l-0.1,0v-0.1
	c0.1,0,0.3,0,0.4,0s0.3,0,0.4,0v0.1l-0.1,0c-0.1,0-0.1,0-0.1,0.1c0,0,0,0.1,0,0.3v1.5c0,0.1,0,0.2,0,0.3l-0.3,0
	c-0.1-0.2-0.3-0.3-0.4-0.5l-1.1-1.3l0,1.3c0,0.1,0,0.2,0,0.3c0,0,0.1,0.1,0.1,0.1l0.1,0v0.1c-0.1,0-0.3,0-0.4,0c-0.1,0-0.3,0-0.4,0
	v-0.1l0.1,0c0.1,0,0.1,0,0.1-0.1C98.2,18.7,98.2,18.6,98.2,18.5 M103.6,18.2v0.5c-0.3,0.1-0.6,0.2-1,0.2c-0.8,0-1.3-0.4-1.3-1.2
	c0-0.8,0.6-1.2,1.3-1.2c0.3,0,0.6,0,0.9,0.2c0,0.2,0,0.4-0.1,0.6h-0.1l0-0.3c-0.1-0.2-0.4-0.2-0.7-0.2c-0.6,0-0.9,0.4-0.9,0.9
	c0,0.6,0.3,1.1,0.9,1.1c0.1,0,0.3,0,0.4-0.1v-0.4c0-0.1-0.1-0.1-0.2-0.1l-0.2,0V18c0.2,0,0.3,0,0.5,0c0.2,0,0.3,0,0.5,0v0.1
	C103.6,18.1,103.6,18.2,103.6,18.2 M105.8,16.8v1.6c0,0.1,0,0.2,0,0.3c0,0,0.1,0,0.1,0l0.1,0v0.1c-0.1,0-0.3,0-0.5,0
	c-0.2,0-0.4,0-0.5,0v-0.1l0.1,0c0.1,0,0.1,0,0.1,0c0,0,0-0.1,0-0.3v-1.6H105c-0.1,0-0.2,0-0.2,0c0,0,0,0,0,0.1l0,0.2h-0.1
	c0-0.2,0-0.4,0-0.5c0.4,0,0.7,0,1.1,0c0.3,0,0.7,0,1,0c0,0.2,0,0.3,0,0.6h-0.1l0-0.2c0,0,0-0.1,0-0.1c0,0-0.1,0-0.2,0H105.8z"/>
</svg>
