<svg xmlns="http://www.w3.org/2000/svg" width="144.29" height="65.838" viewBox="0 0 144.29 65.838">
  <defs>
    <style>
      .cls-1 {
        fill: #231f20;
      }
    </style>
  </defs>
  <path id="victoria_University_Icon" class="cls-1" d="M65.223,71.4v5.845H83.99V71.4l-2.769,3.077H77.529L74.453,71.4l-3.077,3.077H67.684ZM52.917,29.555V35.4H71.684V29.555l-2.769,3.077H65.223l-3.077-3.077L59.07,32.632H55.378Zm24.612,0V35.4H96.3V29.555l-2.769,3.077H89.835l-3.077-3.077-3.077,3.077H79.99Zm-3.077,10.46c-3.077,0-4.307,2.154-7.384,2.154s-4.307-2.154-7.384-2.154c-2.769,0-4,2.154-6.768,2.154s-4.615-1.846-6.768-1.846V58.783c0,4,3.077,9.537,6.768,9.537,2.769,0,4-2.154,6.768-2.154,3.077,0,4.307,2.154,7.384,2.154s4.307-2.154,7.384-2.154,4.307,2.154,7.384,2.154,4.307-2.154,7.384-2.154c2.769,0,4,2.154,6.768,2.154,3.692,0,6.768-5.538,6.768-9.537V40.323c-2.154,0-4,1.846-6.768,1.846s-4-2.154-6.768-2.154c-3.077,0-4.307,2.154-7.384,2.154s-4.307-2.154-7.384-2.154m0,47.687c-1.231,0-30.458-12.614-30.458-28.92V23.71h61.223V58.783c0,16-29.535,28.92-30.766,28.92M70.145,60.321l-1.231-2.154,1.231-2.154H67.684L66.454,53.86l-1.231,2.154H62.762l1.231,2.154-1.231,2.154h2.461l1.231,2.154,1.231-2.154Zm16.306-8-1.231-2.154,1.231-2.154H83.99l-1.231-2.154-1.231,2.154H79.067L80.3,50.168l-1.231,2.154h2.461l1.231,2.154,1.231-2.154Zm-11.691,0L73.53,50.168l1.231-2.154H72.3l-1.231-2.154-1.231,2.154H67.377l1.231,2.154-1.231,2.154h2.461l1.231,2.154L72.3,52.322Zm7.076,8-1.231-2.154,1.231-2.154H79.375L78.145,53.86l-1.231,2.154H74.453l1.231,2.154-1.231,2.154h2.461l1.231,2.154,1.231-2.154ZM59.378,44.015h30.15v20H59.378ZM36.919,40.631c-1.846,0-4-2.154-3.692-3.692.923-7.691,4.922-5.23,7.691-7.384.923,1.231,2.154,11.076-4,11.076M128.292,47.4a8.274,8.274,0,0,1-3.077,5.23c1.538,0,4.307.308,4.923-1.846.308-1.846-1.538-3.077-1.846-3.384m-4.615-.923c-5.845-.308-8,3.077-6.153,4.615,3.692,2.461,6.153-4.615,6.153-4.615m.308-8.307a5.18,5.18,0,0,1-3.384,1.846h5.845a6,6,0,0,1-2.461-1.846M112.91,31.4a4.615,4.615,0,1,0,4.615-4.615A4.732,4.732,0,0,0,112.91,31.4m18.152,3.692c.615-.923,1.846-.923,3.077-.615s2.154,1.538,1.846,2.461c6.461,0,8.307-1.538,8.307-1.538-1.846,3.692-7.384,6.153-9.537,6.153,3.077.923,8.922,4.307,8.922,11.076,0,9.537-9.23,11.076-14.767,9.537a3.316,3.316,0,0,1,2.461,1.846H107.679V44.63a8.605,8.605,0,0,1,3.692-2.461c.923-.308.923-1.538.923-1.538a10.683,10.683,0,0,1-4.922-3.077V26.171s2.769-4,9.537-4c5.23,0,8.307,4.615,8.307,4.615s2.154-1.846,6.768-1.846c9.845,0,12.306,9.537,12.306,9.537a13.957,13.957,0,0,0-8.307-3.384,2.05,2.05,0,0,1-2.154,1.538,2.59,2.59,0,0,1-2.154-1.231l-.923.615c0,.308.308.615,0,.923a1.692,1.692,0,0,1-.923,1.538ZM115.371,31.4a2.154,2.154,0,1,1,2.154,2.154c-1.231-.308-2.154-.923-2.154-2.154M41.533,39.708V64.32H4.615s1.231-3.384,2.461-4.615L5.538,58.167s4.922-6.461,8.614-6.768l-1.231-1.231C14.152,48.63,16.613,48.63,24,48.015c7.691-.615,8.614-2.769,8.922-8.922,1.846,2.461,4.922,5.23,8.614.615M23.074,27.094c-2.461-1.846-3.692-2.461-4.615-2.154-.923,0-2.461,2.769-2.461,2.769a18.46,18.46,0,0,1,7.076-.615m-9.23,10.153c-1.846-1.538-4-4.307-4.307-6.461a2.583,2.583,0,0,1,.923-2.461,3.4,3.4,0,0,1-.308-2.154c.923-3.077,16-3.384,19.075-3.077,7.076.308,8.614,0,12-1.231,0,0-1.231,5.23-7.691,4.922v.923c2.461,0,8,1.231,4.307,2.154-3.077.615-5.23.615-6.461,10.153-.308,2.769,0,5.23-4.615,6.153-4.307.923-16,1.231-17.844,2.769l-.308-.615A7.453,7.453,0,0,0,12,41.554a5.2,5.2,0,0,1,1.538-.615c0,.923-1.231,3.077,4.307,3.077,0,0,5.23.615,3.077-5.845-.923-1.846-1.538-4.307-4-4.307,0,0-3.077,0-1.538,3.384,2.154.615,4.615.923,4.922,2.461s-.923,2.461-1.846,2.154-3.384-1.846-5.23-1.846c-3.384,0-9.537,4-13.229-3.384,1.231,1.231,2.154,2.154,5.845,2.154s4.307-1.538,8-1.538" transform="translate(0 -21.864)"/>
</svg>
