<svg xmlns="http://www.w3.org/2000/svg" xmlns:xlink="http://www.w3.org/1999/xlink" width="1622.441" height="2327.139" viewBox="0 0 1622.441 2327.139">
  <defs>
    <filter id="Path_81" x="92.9" y="1304.153" width="77.085" height="187.365" filterUnits="userSpaceOnUse">
      <feOffset input="SourceAlpha"/>
      <feGaussianBlur stdDeviation="2.5" result="blur"/>
      <feFlood flood-color="red" flood-opacity="0.639"/>
      <feComposite operator="in" in2="blur"/>
      <feComposite in="SourceGraphic"/>
    </filter>
    <filter id="Path_88" x="0" y="1320.47" width="124.793" height="101.988" filterUnits="userSpaceOnUse">
      <feOffset input="SourceAlpha"/>
      <feGaussianBlur stdDeviation="1.5" result="blur-2"/>
      <feFlood flood-color="#fff"/>
      <feComposite operator="in" in2="blur-2"/>
      <feComposite in="SourceGraphic"/>
    </filter>
    <filter id="Path_89" x="12.03" y="1381.625" width="147.97" height="92.892" filterUnits="userSpaceOnUse">
      <feOffset input="SourceAlpha"/>
      <feGaussianBlur stdDeviation="1.5" result="blur-3"/>
      <feFlood flood-color="#fff"/>
      <feComposite operator="in" in2="blur-3"/>
      <feComposite in="SourceGraphic"/>
    </filter>
    <filter id="Path_91" x="28.782" y="1337.547" width="131.91" height="72.358" filterUnits="userSpaceOnUse">
      <feOffset input="SourceAlpha"/>
      <feGaussianBlur stdDeviation="1.5" result="blur-4"/>
      <feFlood flood-color="#fff"/>
      <feComposite operator="in" in2="blur-4"/>
      <feComposite in="SourceGraphic"/>
    </filter>
    <filter id="Path_92" x="2.628" y="1309.193" width="110.594" height="94.664" filterUnits="userSpaceOnUse">
      <feOffset input="SourceAlpha"/>
      <feGaussianBlur stdDeviation="1.5" result="blur-5"/>
      <feFlood flood-color="#fff" flood-opacity="0.161"/>
      <feComposite operator="in" in2="blur-5"/>
      <feComposite in="SourceGraphic"/>
    </filter>
  </defs>
  <g id="Group_10" data-name="Group 10" transform="translate(-2548.595 2627)">
    <path id="Path_72" data-name="Path 72" d="M1510.31,1491.693s33.316,309.682-250,474.033c288.433,86.569,440.717,343.654,440.717,343.654s209.865-360.312,905.044-450.292c-505.454-213.645-638.384-693.474-638.384-693.474Z" transform="translate(1559.278 -2612.204)" fill="#cad7f5" stroke="#000" stroke-width="3"/>
    <path id="Path_73" data-name="Path 73" d="M702.338,1531.38l-3.712-8.765H695.4" transform="translate(2496 -2753)" fill="none"/>
    <path id="Path_74" data-name="Path 74" d="M471.08,1185.963s16.834-16.488,35.8-15.09" transform="translate(2496 -2753)" fill="none" stroke="#000" stroke-width="1"/>
    <path id="Path_75" data-name="Path 75" d="M1027.653,1331.109s-15.9-12.01-27.2-119.191,3.073-184.865,3.073-184.865,83.264,122.229,44.157,297.45C1023.414,1371.841,1027.653,1331.109,1027.653,1331.109Z" transform="translate(2498 -2754)" fill="#cad7f5" stroke="#000" stroke-width="3"/>
    <g id="Group_8" data-name="Group 8" transform="translate(2921 -2615)">
      <path id="Path_17" data-name="Path 17" d="M24,780.135c35.89-350.1,447.55-272.962,490-93.5,33.442,103.99,52.233,270.181,64.522,386.061,15.734,20.677,39.367,35.347,77.033,51.688,6.128,2.659,12.648,5.272,19.351,7.741-12.167,6.67-71.321,32.745-81.906,94.005-3.333,59.17,53.708,611.1-255,746.742-58.05,22.619-180.99-3.674-192.012-99.2-1.515-46.522,2.8-115.731,114.511-165.544.948-30.225,3.382-73.119-54.484-135.255-49-47-97.817-100.682-72.516-125.745L124.08,1322.5C102.215,1259.937,20.333,1238.47,6,1234.13c20.294-14.662,109.323-102.2,41.5-153-2.4.4-4,1.17-12,7-5.244-13.05-5.862-29.143,5.967-39.9-.813-25.136,10.533-34.1,20.033-40.1C56.243,994.4,20.8,926.842,24,780.135Z" fill="#b8c9f1" stroke="#000" stroke-width="4"/>
      <path id="Path_19" data-name="Path 19" d="M301.8,1143.6c-9.834,7.83-8.328-15.86,122-121.5,50.7-41.1,78.248-61,98.7-71.6-30.8,23.8-7.5,64,9.3,84.6,51.6,66.8-18.5,124.16-60,144.5C363,1216,313.133,1170.76,301.8,1143.6Z" fill="#5e79b9" stroke="#000" stroke-width="3"/>
      <path id="Path_21" data-name="Path 21" d="M71,1160.95c27.6-60.4,6.5-80.62-7-82.95,16-2.8,46,8.62,58.5,14.45,20.8,7.2,57.667,38.67,73.5,53.5l14.5,47c-20,22.4-47.667,36.33-59,40.5C62.7,1253.05,60.833,1193.28,71,1160.95Z" fill="#5e79b9" stroke="#000" stroke-width="3"/>
      <path id="Path_52" data-name="Path 52" d="M259.89,1708.532s65.054-27.358,74.016,24.054" fill="none" stroke="#1d1f24" stroke-linecap="round" stroke-width="4"/>
      <path id="Path_26" data-name="Path 26" d="M35.5,1086.5h0c6.553-6.515,32.829-13.99,62-4,36.5,12.5,42.5,18.63,51.5,24.13s45,35.5,47.5,39c2,2.8,9.833,32.5,13.5,47-4.167,7.16-20.9,25.3-54.5,40.5-42,19-77,35-91.5,3" fill="none" stroke="#000" stroke-width="3"/>
      <path id="Path_28" data-name="Path 28" d="M166,1032c27,103,90.5,325,128.5,389l13.5,28c-8-40-25.6-154-32-290" fill="none" stroke="#000" stroke-width="3"/>
      <path id="Path_29" data-name="Path 29" d="M369.5,1258c-25,0-65.5,36.5-62,152C300.5,1368.5,307,1200.5,369.5,1258Z" fill="#5e79b9"/>
      <path id="Path_30" data-name="Path 30" d="M307,1447.5c-6.333-87-2.5-246.7,63.5-189.5-21-51-64.9-124.65-76.5-17.45" fill="none" stroke="#000" stroke-width="3"/>
      <path id="Path_31" data-name="Path 31" d="M307.585,1449c-5.333-61.83,1.215-187.2,64.415-190" fill="none" stroke="#000" stroke-width="3"/>
      <path id="Path_32" data-name="Path 32" d="M221,1224.5c-14-18.5-31.111,18.6-20.711,53,11.211-11.5,38.8,20.7,108,171.5" fill="none" stroke="#000" stroke-width="3"/>
      <path id="Path_49" data-name="Path 49" d="M552.787,890.118S500.178,842.57,405.6,893.864" fill="none" stroke="#000" stroke-linecap="round" stroke-width="2"/>
      <path id="Path_50" data-name="Path 50" d="M541.582,893.1s-48.6-54.6-135.981,4.3" transform="translate(17.604 35)" fill="none" stroke="#000" stroke-linecap="round" stroke-width="2"/>
      <path id="Path_51" data-name="Path 51" d="M146.392,1320.167c4.952-5.207,11.483-7.51,1.687-35.193" fill="none" stroke="#353535" stroke-linecap="round" stroke-width="2"/>
      <path id="Path_53" data-name="Path 53" d="M571.859,1066.546s-34.628-34.319-30.032-58.137" transform="translate(9 9)" fill="none" stroke="#000" stroke-width="4"/>
      <path id="Path_54" data-name="Path 54" d="M61.427,1008.269s2.92-1.9,15.4-6.173" fill="none" stroke="#000" stroke-linecap="round" stroke-width="4"/>
      <path id="Path_55" data-name="Path 55" d="M62.773,1002.522s7.428-8.345,22.277-10.908" transform="translate(-21.581 46)" fill="none" stroke="#000" stroke-linecap="round" stroke-width="4"/>
      <path id="Path_18" data-name="Path 18" d="M193,904.5C135.631,855.2,83.006,783.925,93.5,688,4.551,748.638,39.138,880.69,44.216,961.763,6.2,855.56-112.861,701.451,61.5,440c-16.4,189.628,115.616,123.149,32-29.5-8.391-28.483-8.654-47.684,44.146-140.5,12.521-19.877,22.766-44.631,35.025-84.91s8.962-55.5,4.9-97.544C203.318,189.731,238.581,369.5,283.5,162.324,306.879,81.767,332.909,57.775,283.5,0c15,6.376,30.4,19.275,42.4,40.875C340.9,67.875,339,86,339,108.5a341.858,341.858,0,0,1-8.455,73.088c-4.4,19.2-11.378,79.245-9.545,88.412,8.407,138.023,53.326,96.606,127-14-9.667,21.333-45.3,112.971-.237,154.22,11.5,10.675,19.73,21.8,20.737,42.28-6.874,73.469,89.97,170.926,57.309-90.622C555.58,454.781,577.5,499.812,564.5,591.5c-5.5,53-20.2,51.512,5.5,110,24.793,45.694,30.372,151.151,31.628,224.818-5.5-9.667-12.514-23.012-18-34.332-4.872-5.043-10.644,93.06,1.194,141.644C568.034,996.455,544.2,866.448,538.5,825l-8.033,26.895C430.129,652.324,281.333,526.492,193,904.5Z" fill="#2f6ddc"/>
      <path id="Path_68" data-name="Path 68" d="M74.031,1043.8c-1.625,22.609-.059,2.6-1.614,32.165,52.8,6.052,94.763,39.784,126.875,70.765,10.621,36.282,4.7,19.448,22.048,73.685,6.222-9.719,42.324-49.061,53.063-61.746,44.45-16.385,55.32-68.561,211.225-187.042C280.55,992.543,96.026,1043.8,74.031,1043.8Z" fill="#b8c9f1"/>
      <path id="Path_27" data-name="Path 27" d="M250.492,1070.91c-2.5,9.17-5.3,33.7,3.5,58.5,11,31,7,32,15,31.5,6.4-.4,15.333-4.83,19-7l21-17.5c21.833-24.33,75.6-81.4,116-115s76.833-59.33,90-68c13.666-6.166,44.891-25.5,39.457,24.368" fill="none" stroke="#000" stroke-linecap="round" stroke-width="3" opacity="0.68"/>
    </g>
    <path id="Path_76" data-name="Path 76" d="M697.264,1522.649s-.593,2.533-27.661-14.978-93.1-68.728-128.58-47.5c-12.384,7.41-17.1,14.071-15.967,18.1h0c1.827,6.479,20.2,7.023,20.2,7.023s39.1,3.437,121.948,35.235c6.548,2.513,12.947,5.293,20.531,8.047.021.008.489.169.8.283,2.38.864,5.642,2.974,8.727,3.98,1.5.487,2.751-.218,4.57.554" transform="translate(2499.503 -2752.936)" fill="#393939"/>
    <path id="Path_77" data-name="Path 77" d="M541.794,1485.073c-8.279-4.141-94.59-25.3-132.948-23.617-14.9-8.2-158.305-28.476-189.633-15.828-9.788-5.039-43.838-7.566-61.394-2.231s-21.409,3.484-21.409,3.484l-33.823,10.509s-26.021,13.144-32.059,24.578-7.268,1.7-8.175,31.738,6.6,26.722,14.961,48.409,47.106,41.52,63.612,42.2c8.081.331-17.126.567,46.215,0s315.249-4.983,398.087-21.662c.506-7.941-1.839-39.842,110.769-49.856C696,1532.792,618.509,1493.474,541.794,1485.073Z" transform="translate(2498.869 -2753.786)" fill="#7a6161" stroke="#000" stroke-width="1"/>
    <path id="Path_78" data-name="Path 78" d="M180.642,1604.62c68.47-71.576-13.675-161.759-21.888-161.95-1.7-.04-8.242.433-15.706,1.146-4.34.415-9.917,3.985-13.942,4.524-7.751,1.852-16.621,2.18-25.134,5.268-4.487,1.627-7.378,6.143-11.807,8.475-3.435,1.808-7.295,1.925-10.682,4.019-2.285,1.412-3.494,4.769-5.685,6.664-6.1,5.273-12.56,10.036-13.619,17.367-.7,4.844.27,10.117,0,15.139-.347,6.436-2.454,13.26-1.937,19.7.384,4.776-1.985,11.76,0,16.388,1.661,3.876,7.642,5.405,9.579,9.579,2.055,4.43,3.325,8.1,5.976,12.619,2.333,3.978,4.312,9.214,8.329,13.327,1.382,1.416,4.308,2.062,6.09,3.485,2.412,1.926,3.926,6.48,6.4,8.322,3.693,2.746,9.412,3.453,13.056,5.56,5.835,3.375,10.536,7.6,16.1,9.433,3.3,1.088,7.907.6,11.786.936,3.306.29,7.244,1.417,11.12,1.563,4.009.151,8.082-.729,13.712-1.006C192.28,1603.7,180.642,1604.62,180.642,1604.62Z" transform="translate(2496 -2753)" fill="#ab0000"/>
    <path id="Path_79" data-name="Path 79" d="M701.834,1582.756c-64.337,3.763-152.55,26.192-95.839,86.269" transform="translate(2496 -2803.313)" fill="none" stroke="#000" stroke-width="2"/>
    <path id="Path_80" data-name="Path 80" d="M731.535,1494.25s70.173-106.078,145.634,65.268c-38.107-54.558-53.283-116.829-147.222-47.576C730.908,1498.982,731.535,1494.25,731.535,1494.25Z" transform="translate(2498 -2746.433)" fill="#393939"/>
    <g transform="matrix(1, 0, 0, 1, 2548.59, -2627)" filter="url(#Path_81)">
      <path id="Path_81-2" data-name="Path 81" d="M180.055,1607.084c60.2-84.308-15.727-166.046-23.94-166.238s-9.749-.269-8.922.52,50.5,47.134,49.385,90.448-28.266,74.4-28.266,74.4Z" transform="translate(-43.59 -126.07)" fill="#fff1f1"/>
    </g>
    <path id="Path_82" data-name="Path 82" d="M218.874,1445.719c15.372,6.288,86.959,32.848,109.4,91.746s13.687,63.255,13.687,63.255" transform="translate(2496 -2753)" fill="none" stroke="#000" stroke-width="1"/>
    <path id="Path_83" data-name="Path 83" d="M218.082,1445.111c9.5,5.333,54.248,28.372,68.121,78.321s8.461,53.643,8.461,53.643" transform="translate(2685 -2737)" fill="none" stroke="#000" stroke-width="1"/>
    <path id="Path_84" data-name="Path 84" d="M219.865,1446s60.112,19.529,49.668,86.807" transform="translate(2817 -2714)" fill="none" stroke="#000" stroke-width="1"/>
    <path id="Path_85" data-name="Path 85" d="M756.506,1333.328s214.012,72.18,171.444,321.974" transform="translate(2491 -2760)" fill="none" stroke="#353535" stroke-linecap="round" stroke-width="2"/>
    <path id="Path_86" data-name="Path 86" d="M639.017,1353.584c-3.726-6.335-45.673-2.889-56.945,40.342-54.541,15.114-36.36,62.941-36.36,62.941" transform="translate(2500 -2752)" fill="none" stroke="#353535" stroke-width="2"/>
    <path id="Path_87" data-name="Path 87" d="M705.424,1342.91c12.91-72.731,20.837-26.982,80.905-14.408s184.28-5.349,193.077-54.874" transform="translate(2496 -2753)" fill="none" stroke="#353535" stroke-linecap="round" stroke-width="2"/>
    <g transform="matrix(1, 0, 0, 1, 2548.59, -2627)" filter="url(#Path_88)">
      <path id="Path_88-2" data-name="Path 88" d="M168.907,1455.1l-18.615,16.109H118.948v21.768l-30.927,16.653a8.026,8.026,0,0,1,0,7.969c-2.379,4.342,0,7.078,0,7.078l5.174,10.349s-11.062,5.115-14.274,4.342-12.311-9.873-12.311-9.873l-5.531-4.817" transform="translate(-52.59 -126)" fill="none" stroke="red" stroke-width="3"/>
    </g>
    <g transform="matrix(1, 0, 0, 1, 2548.59, -2627)" filter="url(#Path_89)">
      <path id="Path_89-2" data-name="Path 89" d="M204.573,1544.38l-31.591-11.722-22.55,8.473-3.979,19.112-17.7-8.635,4.169-30.509-15.349-4.169-8.311,22.225-12.994,1.976,8.148,19.112,38.44,19.139-9.935,11.749-17.325-9.042,7.39-6.5s-2.518-3.79-3.6-3.79-11.911-2.166-11.911-2.166,1.949,6.524,1.787,7.417-17.488-1.462-17.488-1.462l-6.5-11.911-8.311-5.766-4.142-2.166" transform="translate(-52.59 -126)" fill="none" stroke="red" stroke-width="3"/>
    </g>
    <path id="Path_90" data-name="Path 90" d="M1020.994,1227.31s-11.479-113.774-3.568-125.253,23.171,36.779,25.878,78.847-1.687,42.689-5.657,43.67-7.853-17.966-9.34-27.78,1.274-16.307,3.086-15.891" transform="translate(2496 -2753)" fill="none" stroke="#000" stroke-width="2"/>
    <g transform="matrix(1, 0, 0, 1, 2548.59, -2627)" filter="url(#Path_91)">
      <path id="Path_91-2" data-name="Path 91" d="M205.553,1524.189l-22.36-30.784v8.788l-10.151-4.394v-14.174l-3.738-9.119-8.906,16.064,8.906,20.458v9.166h-12.92l-13.52-31.844-12.92,18.285h-13.2l-11.4,8.174h7.383l-22.149,12.284" transform="translate(-53.57 -126)" fill="none" stroke="red" stroke-width="3"/>
    </g>
    <g transform="matrix(1, 0, 0, 1, 2548.59, -2627)" filter="url(#Path_92)">
      <path id="Path_92-2" data-name="Path 92" d="M155.995,1442.667l-15.687,2.559-11.37,4.683-4.521,5.766H111.423l-4.142,12.642-5.766-9.745,3.411,25.988-3.411,7.39-14.266-2.166,7.228-10.449v-9.583L75.148,1484.56l-1.624,14.618L68.3,1483.287l-5.577,14.618v11.37s9.366,4.169,9.366,5.062a45.133,45.133,0,0,0,1.435,5.414" transform="translate(-50.59 -124)" fill="none" stroke="#f51c1c" stroke-width="4"/>
    </g>
    <path id="Path_93" data-name="Path 93" d="M250.492,1070.91c-2.5,9.17-5.3,33.7,3.5,58.5,11,31,7,32,15,31.5,6.4-.4,15.333-4.83,19-7l21-17.5c21.833-24.33,75.6-81.4,116-115s76.833-59.33,90-68c13.666-6.166,44.891-25.5,39.457,24.368" transform="translate(2920.328 -2614.955)" fill="none" stroke="#000" stroke-linecap="round" stroke-width="3" opacity="0.58"/>
  </g>
</svg>
