<svg xmlns="http://www.w3.org/2000/svg" width="483.48" height="277.321" viewBox="0 0 483.48 277.321">
  <defs>
    <style>
      .cls-1 {
        fill: #b8c9f1;
      }

      .cls-2 {
        fill: none;
        stroke: #000;
        stroke-linecap: round;
        stroke-width: 3px;
        opacity: 0.58;
      }
    </style>
  </defs>
  <g id="Group_11" data-name="Group 11" transform="translate(-3693.417 1814.755)">
    <path id="Path_68" data-name="Path 68" class="cls-1" d="M74.031,1043.8c-1.625,22.609-.059,2.6-1.614,32.165,52.8,6.052,94.763,39.784,126.875,70.765,10.621,36.282,4.7,19.448,22.048,73.685,6.222-9.719,42.324-49.061,53.063-61.746,44.45-16.385,55.32-68.561,211.225-187.042C280.55,992.543,96.026,1043.8,74.031,1043.8Z" transform="translate(3621 -2757.848)"/>
    <path id="Path_93" data-name="Path 93" class="cls-2" d="M250.492,1070.91c-2.5,9.17-5.3,33.7,3.5,58.5,11,31,7,32,15,31.5,6.4-.4,15.333-4.83,19-7l21-17.5c21.833-24.33,75.6-81.4,116-115s76.833-59.33,90-68c13.666-6.166,44.891-25.5,39.457,24.368" transform="translate(3620.328 -2757.804)"/>
  </g>
</svg>
